<svg width="339" height="122" viewBox="0 0 339 122" fill="none" xmlns="http://www.w3.org/2000/svg">
<rect width="339" height="121.542" rx="10" fill="#1E1E3F"/>
<mask id="mask0" mask-type="alpha" maskUnits="userSpaceOnUse" x="0" y="0" width="339" height="122">
<rect width="339" height="121.542" rx="10" fill="#C4C4C4"/>
</mask>
<g mask="url(#mask0)">
<path d="M52.5286 51.7457C52.5286 29.5161 74.7358 8.42371 88.8288 0H0V121.542H80.7146C84.1311 101.686 76.4438 86.6439 68.3298 79.4236C60.2159 72.2033 52.5286 69.7268 52.5286 51.7457Z" fill="#444359"/>
<path d="M180.876 41.8596C166.512 21.2733 173.211 2.81667 178.356 -3.83838H339V55.6134C302.146 111.516 277.577 70.6982 275.372 60.4938C273.167 50.2893 270.963 15.6831 236.314 45.409C201.665 75.1349 198.83 67.5925 180.876 41.8596Z" fill="#9B9DB4" fill-opacity="0.49"/>
<path d="M222.979 125.38C222.979 147.991 209.993 166.321 193.973 166.321C177.954 166.321 164.968 147.991 164.968 125.38C161.995 86.2106 170.822 88.8502 181.618 96.38C188.915 101.469 197.868 99.7702 205.737 95.6191C220.836 87.6539 222.979 106.799 222.979 125.38Z" fill="#6C71A1"/>
</g>
<rect width="339" height="121.542" rx="10" fill="#0038FF" style="mix-blend-mode:soft-light"/>
<path d="M313.456 63.3854L303.891 54.0806C303.734 53.9263 303.547 53.8038 303.341 53.7202C303.135 53.6366 302.914 53.5935 302.691 53.5935C302.468 53.5935 302.247 53.6366 302.041 53.7202C301.835 53.8038 301.649 53.9263 301.491 54.0806C301.177 54.3892 301 54.8066 301 55.2417C301 55.6768 301.177 56.0942 301.491 56.4027L309.856 64.637L301.491 72.7889C301.177 73.0975 301 73.5149 301 73.95C301 74.3851 301.177 74.8025 301.491 75.111C301.648 75.2666 301.835 75.3904 302.041 75.4752C302.246 75.56 302.468 75.6042 302.691 75.6051C302.915 75.6042 303.136 75.56 303.342 75.4752C303.548 75.3904 303.735 75.2666 303.891 75.111L313.456 65.8063C313.627 65.6521 313.764 65.4649 313.858 65.2566C313.952 65.0482 314 64.8233 314 64.5958C314 64.3684 313.952 64.1434 313.858 63.9351C313.764 63.7268 313.627 63.5396 313.456 63.3854V63.3854Z" fill="white"/>
</svg>
