<svg width="339" height="122" viewBox="0 0 339 122" fill="none" xmlns="http://www.w3.org/2000/svg">
<rect width="339" height="121.542" rx="10" fill="#1E1E3F"/>
<mask id="mask0" mask-type="alpha" maskUnits="userSpaceOnUse" x="0" y="0" width="339" height="122">
<rect width="339" height="121.542" rx="10" fill="#C4C4C4"/>
</mask>
<g mask="url(#mask0)">
<path d="M52.5286 51.7457C52.5286 29.5161 74.7358 8.42371 88.8288 0H0V121.542H80.7146C84.1311 101.686 76.4438 86.6439 68.3298 79.4236C60.2159 72.2033 52.5286 69.7268 52.5286 51.7457Z" fill="#444359"/>
<path d="M180.876 41.8597C166.512 21.2735 173.211 2.81679 178.356 -3.83826H339V55.6135C302.146 111.516 277.577 70.6983 275.372 60.4939C273.167 50.2895 270.963 15.6832 236.314 45.4091C201.665 75.135 198.83 67.5926 180.876 41.8597Z" fill="#9B9DB4" fill-opacity="0.49"/>
<path d="M222.979 125.38C222.979 147.991 209.992 166.321 193.973 166.321C177.954 166.321 164.968 147.991 164.968 125.38C161.995 86.2105 170.821 88.8501 181.618 96.3799C188.915 101.469 197.868 99.7701 205.737 95.619C220.836 87.6537 222.979 106.799 222.979 125.38Z" fill="#6C71A1"/>
</g>
<rect width="339" height="121.542" rx="10" fill="#FF0000" style="mix-blend-mode:soft-light"/>
<path d="M36.9391 50.5928C37.5191 50.5928 38.0025 50.3512 38.3891 49.8678C38.7951 49.3845 39.1238 48.7948 39.3751 48.0988C39.6458 47.4028 39.8391 46.6778 39.9551 45.9238C40.0711 45.1698 40.1291 44.5125 40.1291 43.9518C40.1291 43.4298 40.0421 42.9948 39.8681 42.6468C39.6941 42.2795 39.3171 42.0958 38.7371 42.0958H37.4321L35.6051 50.5928H36.9391ZM35.1991 52.4488L33.8941 58.5388H27.6301L31.5451 40.1238H38.2441C39.3461 40.1238 40.3515 40.1818 41.2601 40.2978C42.1688 40.4138 42.9518 40.6458 43.6091 40.9938C44.2665 41.3418 44.7788 41.8445 45.1461 42.5018C45.5135 43.1398 45.6971 44.0002 45.6971 45.0828C45.6971 46.0882 45.5328 47.0452 45.2041 47.9538C44.8948 48.8432 44.3825 49.6262 43.6671 50.3028C42.9711 50.9602 42.0625 51.4822 40.9411 51.8688C39.8198 52.2555 38.4568 52.4488 36.8521 52.4488H35.1991ZM54.1538 45.7498C56.4545 45.7498 58.1268 46.1558 59.1708 46.9678C60.2728 47.8185 60.8238 49.2298 60.8238 51.2018C60.8238 52.4198 60.6208 53.5218 60.2148 54.5078C59.8088 55.4745 59.2385 56.2768 58.5038 56.9148C57.0345 58.1522 54.9078 58.7708 52.1238 58.7708C49.7458 58.7708 48.0445 58.3165 47.0198 57.4078C45.9178 56.4605 45.3668 55.0395 45.3668 53.1448C45.3668 51.8882 45.6181 50.7475 46.1208 49.7228C46.6428 48.6982 47.3871 47.8475 48.3538 47.1708C49.7651 46.2235 51.6985 45.7498 54.1538 45.7498ZM52.1818 56.7988C52.6651 56.7988 53.0808 56.5282 53.4288 55.9868C53.7961 55.4455 54.0861 54.7882 54.2988 54.0148C54.5115 53.2222 54.6661 52.4102 54.7628 51.5788C54.8788 50.7282 54.9368 49.9935 54.9368 49.3748C54.9368 48.8335 54.8788 48.4275 54.7628 48.1568C54.6661 47.8668 54.4438 47.7218 54.0958 47.7218C53.5738 47.7218 53.1195 48.0022 52.7328 48.5628C52.3655 49.1235 52.0658 49.7905 51.8338 50.5638C51.6018 51.3372 51.4278 52.1298 51.3118 52.9418C51.2151 53.7538 51.1668 54.4112 51.1668 54.9138C51.1668 56.1705 51.5051 56.7988 52.1818 56.7988ZM62.1191 46.0688H68.2671L69.2821 54.5948L72.7911 46.0688H78.3301L79.3161 54.5948L82.8251 46.0688H85.8991L80.1281 58.5388H74.0671L72.9941 52.2168L70.0651 58.5388H64.0041L62.1191 46.0688ZM91.414 52.7098C91.3367 53.1352 91.2787 53.5412 91.24 53.9278C91.2207 54.3145 91.211 54.6625 91.211 54.9718C91.211 55.1458 91.2207 55.3392 91.24 55.5518C91.2594 55.7645 91.298 55.9675 91.356 56.1608C91.4334 56.3348 91.53 56.4895 91.646 56.6248C91.7814 56.7408 91.965 56.7988 92.197 56.7988C92.371 56.7988 92.5644 56.7408 92.777 56.6248C93.009 56.5088 93.2314 56.3445 93.444 56.1318C93.676 55.9192 93.8887 55.6582 94.082 55.3488C94.2947 55.0395 94.459 54.6915 94.575 54.3048H99.331L98.577 57.4078C98.1904 57.6592 97.7457 57.8718 97.243 58.0458C96.7404 58.2198 96.2087 58.3648 95.648 58.4808C95.0874 58.5775 94.517 58.6452 93.937 58.6838C93.357 58.7418 92.806 58.7708 92.284 58.7708C91.3174 58.7708 90.4184 58.6838 89.587 58.5098C88.7557 58.3358 88.0307 58.0362 87.412 57.6108C86.7934 57.1855 86.3004 56.6248 85.933 55.9288C85.585 55.2135 85.411 54.3338 85.411 53.2898C85.411 52.3425 85.556 51.4145 85.846 50.5058C86.1554 49.5972 86.658 48.7948 87.354 48.0988C88.0694 47.3835 89.0167 46.8132 90.196 46.3878C91.3947 45.9625 92.8834 45.7498 94.662 45.7498C96.5954 45.7498 98.0454 46.0495 99.012 46.6488C99.998 47.2482 100.491 48.1858 100.491 49.4618C100.491 49.9838 100.414 50.5542 100.259 51.1728C100.104 51.7722 99.8724 52.2845 99.563 52.7098H91.414ZM95.271 49.2588C95.271 48.6595 95.1744 48.2535 94.981 48.0408C94.7877 47.8282 94.5557 47.7218 94.285 47.7218C93.9757 47.7218 93.6857 47.8282 93.415 48.0408C93.1637 48.2342 92.9317 48.5048 92.719 48.8528C92.5064 49.1815 92.313 49.5682 92.139 50.0128C91.965 50.4382 91.82 50.8925 91.704 51.3758H95.01C95.0487 51.1438 95.0874 50.9022 95.126 50.6508C95.1647 50.4382 95.1937 50.2062 95.213 49.9548C95.2517 49.7035 95.271 49.4715 95.271 49.2588ZM103.3 46.0688H108.027L108.462 48.2438H108.665C109.11 47.5478 109.68 46.9582 110.376 46.4748C111.072 45.9915 111.991 45.7498 113.131 45.7498C113.209 45.7498 113.325 45.7595 113.479 45.7788C113.653 45.7788 113.837 45.8078 114.03 45.8658C114.243 45.9045 114.456 45.9722 114.668 46.0688C114.9 46.1462 115.123 46.2622 115.335 46.4168L114.059 52.3908H110.898C110.86 51.1922 110.753 50.3608 110.579 49.8968C110.405 49.4135 110.125 49.1718 109.738 49.1718C109.545 49.1718 109.332 49.2202 109.1 49.3168C108.888 49.3942 108.665 49.5778 108.433 49.8678L106.577 58.5388H100.661L103.3 46.0688Z" fill="#FFC700"/>
<path d="M129.83 50.5928C130.41 50.5928 130.893 50.3512 131.28 49.8678C131.686 49.3845 132.014 48.7948 132.266 48.0988C132.536 47.4028 132.73 46.6778 132.846 45.9238C132.962 45.1698 133.02 44.5125 133.02 43.9518C133.02 43.4298 132.933 42.9948 132.759 42.6468C132.585 42.2795 132.208 42.0958 131.628 42.0958H130.323L128.496 50.5928H129.83ZM128.09 52.4488L126.785 58.5388H120.521L124.436 40.1238H131.135C132.237 40.1238 133.242 40.1818 134.151 40.2978C135.059 40.4138 135.842 40.6458 136.5 40.9938C137.157 41.3418 137.669 41.8445 138.037 42.5018C138.404 43.1398 138.588 44.0002 138.588 45.0828C138.588 46.0882 138.423 47.0452 138.095 47.9538C137.785 48.8432 137.273 49.6262 136.558 50.3028C135.862 50.9602 134.953 51.4822 133.832 51.8688C132.71 52.2555 131.347 52.4488 129.743 52.4488H128.09ZM143.535 58.5388H137.619L141.737 39.0508H147.682L143.535 58.5388ZM148.494 47.1418C149.48 46.6585 150.485 46.3105 151.51 46.0978C152.554 45.8658 153.714 45.7498 154.99 45.7498C156.227 45.7498 157.252 45.8465 158.064 46.0398C158.876 46.2332 159.523 46.5135 160.007 46.8808C160.49 47.2482 160.828 47.6832 161.022 48.1858C161.215 48.6885 161.312 49.2588 161.312 49.8968C161.312 50.2642 161.283 50.6605 161.225 51.0858C161.186 51.5112 161.138 51.8688 161.08 52.1588L159.717 58.5388H155.048L154.526 56.6828H154.352C153.733 57.3595 153.008 57.8815 152.177 58.2488C151.365 58.5968 150.553 58.7708 149.741 58.7708C149.277 58.7708 148.822 58.7032 148.378 58.5678C147.933 58.4325 147.537 58.2295 147.189 57.9588C146.841 57.6688 146.56 57.3112 146.348 56.8858C146.135 56.4412 146.029 55.9095 146.029 55.2908C146.029 54.2855 146.299 53.4928 146.841 52.9128C147.401 52.3135 148.126 51.8688 149.016 51.5788C149.924 51.2695 150.939 51.0762 152.061 50.9988C153.201 50.9215 154.342 50.8828 155.483 50.8828C155.521 50.6895 155.57 50.4188 155.628 50.0708C155.686 49.7035 155.715 49.3845 155.715 49.1138C155.715 48.7658 155.618 48.4468 155.425 48.1568C155.251 47.8475 154.874 47.6928 154.294 47.6928C153.617 47.6928 153.114 47.8958 152.786 48.3018C152.476 48.6885 152.273 49.1622 152.177 49.7228H147.943L148.494 47.1418ZM155.164 52.2458H154.642C154.081 52.2458 153.598 52.3232 153.192 52.4778C152.805 52.6132 152.486 52.7968 152.235 53.0288C152.003 53.2608 151.829 53.5218 151.713 53.8118C151.597 54.1018 151.539 54.3918 151.539 54.6818C151.539 55.1458 151.655 55.4938 151.887 55.7258C152.138 55.9578 152.428 56.0738 152.757 56.0738C153.163 56.0738 153.559 55.9288 153.946 55.6388C154.352 55.3488 154.603 54.9622 154.7 54.4788L155.164 52.2458ZM170.178 47.9248C170.584 47.5382 171.039 47.1805 171.541 46.8518C171.986 46.5812 172.508 46.3298 173.107 46.0978C173.707 45.8658 174.374 45.7498 175.108 45.7498C176.114 45.7498 176.945 46.0108 177.602 46.5328C178.26 47.0355 178.588 47.7315 178.588 48.6208C178.588 48.8722 178.559 49.1815 178.501 49.5488C178.443 49.8968 178.376 50.2642 178.298 50.6508C178.221 51.0375 178.134 51.4338 178.037 51.8398C177.96 52.2265 177.892 52.5745 177.834 52.8838L176.616 58.5388H170.729L172.324 50.9698C172.363 50.7185 172.411 50.4672 172.469 50.2158C172.527 49.9452 172.556 49.7035 172.556 49.4908C172.556 49.2008 172.479 48.9688 172.324 48.7948C172.189 48.6015 171.976 48.5048 171.686 48.5048C171.338 48.5048 171 48.6305 170.671 48.8818C170.362 49.1332 170.12 49.3458 169.946 49.5198L168.032 58.5388H162.116L164.755 46.0688H169.482L170.004 47.9248H170.178Z" fill="white"/>
<path d="M35.2461 82.9189C35.2461 83.3856 35.1295 83.8243 34.8961 84.2349C34.6721 84.6456 34.3361 84.9909 33.8881 85.2709C33.4495 85.5509 32.9268 85.7189 32.3201 85.7749V86.9089H31.4101V85.7749C30.5328 85.6909 29.8235 85.4156 29.2821 84.9489C28.7408 84.4823 28.4701 83.8663 28.4701 83.1009H30.1781C30.2061 83.4649 30.3228 83.7683 30.5281 84.0109C30.7335 84.2443 31.0275 84.3936 31.4101 84.4589V81.3789C30.7848 81.2203 30.2761 81.0616 29.8841 80.9029C29.4921 80.7349 29.1561 80.4736 28.8761 80.1189C28.6055 79.7643 28.4701 79.2789 28.4701 78.6629C28.4701 77.8883 28.7408 77.2489 29.2821 76.7449C29.8235 76.2316 30.5328 75.9329 31.4101 75.8489V74.7149H32.3201V75.8489C33.1415 75.9236 33.7995 76.1849 34.2941 76.6329C34.7981 77.0716 35.0828 77.6783 35.1481 78.4529H33.4401C33.4121 78.1636 33.3001 77.9069 33.1041 77.6829C32.9081 77.4496 32.6468 77.2909 32.3201 77.2069V80.2309C32.9455 80.3803 33.4541 80.5389 33.8461 80.7069C34.2381 80.8656 34.5695 81.1223 34.8401 81.4769C35.1108 81.8223 35.2461 82.3029 35.2461 82.9189ZM30.0941 78.5789C30.0941 78.9616 30.2061 79.2603 30.4301 79.4749C30.6635 79.6896 30.9901 79.8623 31.4101 79.9929V77.1649C31.0088 77.2116 30.6868 77.3563 30.4441 77.5989C30.2108 77.8416 30.0941 78.1683 30.0941 78.5789ZM32.3201 84.4589C32.7308 84.3936 33.0528 84.2303 33.2861 83.9689C33.5195 83.6983 33.6361 83.3763 33.6361 83.0029C33.6361 82.6296 33.5195 82.3403 33.2861 82.1349C33.0621 81.9203 32.7401 81.7476 32.3201 81.6169V84.4589ZM37.3656 76.9409V75.4849H40.2776V85.6909H38.6676V76.9409H37.3656ZM47.8601 72.4749L44.0521 88.1409H42.4841L46.2781 72.4749H47.8601ZM53.8615 77.8509C54.4495 77.8509 54.9722 77.9769 55.4295 78.2289C55.8962 78.4809 56.2602 78.8543 56.5215 79.3489C56.7922 79.8436 56.9275 80.4409 56.9275 81.1409V85.6909H55.3455V81.3789C55.3455 80.6883 55.1729 80.1609 54.8275 79.7969C54.4822 79.4236 54.0109 79.2369 53.4135 79.2369C52.8162 79.2369 52.3402 79.4236 51.9855 79.7969C51.6402 80.1609 51.4675 80.6883 51.4675 81.3789V85.6909H49.8715V75.3309H51.4675V78.8729C51.7382 78.5463 52.0789 78.2943 52.4895 78.1169C52.9095 77.9396 53.3669 77.8509 53.8615 77.8509ZM62.3093 85.8169C61.5813 85.8169 60.9233 85.6536 60.3353 85.3269C59.7473 84.9909 59.2853 84.5243 58.9493 83.9269C58.6133 83.3203 58.4453 82.6203 58.4453 81.8269C58.4453 81.0429 58.618 80.3476 58.9633 79.7409C59.3087 79.1343 59.78 78.6676 60.3773 78.3409C60.9747 78.0143 61.642 77.8509 62.3793 77.8509C63.1167 77.8509 63.784 78.0143 64.3813 78.3409C64.9787 78.6676 65.45 79.1343 65.7953 79.7409C66.1407 80.3476 66.3133 81.0429 66.3133 81.8269C66.3133 82.6109 66.136 83.3063 65.7813 83.9129C65.4267 84.5196 64.9413 84.9909 64.3253 85.3269C63.7187 85.6536 63.0467 85.8169 62.3093 85.8169ZM62.3093 84.4309C62.72 84.4309 63.1027 84.3329 63.4573 84.1369C63.8213 83.9409 64.1153 83.6469 64.3393 83.2549C64.5633 82.8629 64.6753 82.3869 64.6753 81.8269C64.6753 81.2669 64.568 80.7956 64.3533 80.4129C64.1387 80.0209 63.854 79.7269 63.4993 79.5309C63.1447 79.3349 62.762 79.2369 62.3513 79.2369C61.9407 79.2369 61.558 79.3349 61.2033 79.5309C60.858 79.7269 60.5827 80.0209 60.3773 80.4129C60.172 80.7956 60.0693 81.2669 60.0693 81.8269C60.0693 82.6576 60.2793 83.3016 60.6993 83.7589C61.1287 84.2069 61.6653 84.4309 62.3093 84.4309ZM74.8771 77.9769V85.6909H73.2811V84.7809C73.0291 85.0983 72.6977 85.3503 72.2871 85.5369C71.8857 85.7143 71.4564 85.8029 70.9991 85.8029C70.3924 85.8029 69.8464 85.6769 69.3611 85.4249C68.8851 85.1729 68.5071 84.7996 68.2271 84.3049C67.9564 83.8103 67.8211 83.2129 67.8211 82.5129V77.9769H69.4031V82.2749C69.4031 82.9656 69.5757 83.4976 69.9211 83.8709C70.2664 84.2349 70.7377 84.4169 71.3351 84.4169C71.9324 84.4169 72.4037 84.2349 72.7491 83.8709C73.1037 83.4976 73.2811 82.9656 73.2811 82.2749V77.9769H74.8771ZM78.5789 79.0969C78.8122 78.7049 79.1202 78.4016 79.5029 78.1869C79.8949 77.9629 80.3569 77.8509 80.8889 77.8509V79.5029H80.4829C79.8575 79.5029 79.3815 79.6616 79.0549 79.9789C78.7375 80.2963 78.5789 80.8469 78.5789 81.6309V85.6909H76.9829V77.9769H78.5789V79.0969ZM84.1059 83.7729L82.4119 87.6369H81.3759L82.3699 83.7729H84.1059ZM95.7032 82.9189C95.7032 83.3856 95.5865 83.8243 95.3532 84.2349C95.1292 84.6456 94.7932 84.9909 94.3452 85.2709C93.9065 85.5509 93.3838 85.7189 92.7772 85.7749V86.9089H91.8672V85.7749C90.9898 85.6909 90.2805 85.4156 89.7392 84.9489C89.1978 84.4823 88.9272 83.8663 88.9272 83.1009H90.6352C90.6632 83.4649 90.7798 83.7683 90.9852 84.0109C91.1905 84.2443 91.4845 84.3936 91.8672 84.4589V81.3789C91.2418 81.2203 90.7332 81.0616 90.3412 80.9029C89.9492 80.7349 89.6132 80.4736 89.3332 80.1189C89.0625 79.7643 88.9272 79.2789 88.9272 78.6629C88.9272 77.8883 89.1978 77.2489 89.7392 76.7449C90.2805 76.2316 90.9898 75.9329 91.8672 75.8489V74.7149H92.7772V75.8489C93.5985 75.9236 94.2565 76.1849 94.7512 76.6329C95.2552 77.0716 95.5398 77.6783 95.6052 78.4529H93.8972C93.8692 78.1636 93.7572 77.9069 93.5612 77.6829C93.3652 77.4496 93.1038 77.2909 92.7772 77.2069V80.2309C93.4025 80.3803 93.9112 80.5389 94.3032 80.7069C94.6952 80.8656 95.0265 81.1223 95.2972 81.4769C95.5678 81.8223 95.7032 82.3029 95.7032 82.9189ZM90.5512 78.5789C90.5512 78.9616 90.6632 79.2603 90.8872 79.4749C91.1205 79.6896 91.4472 79.8623 91.8672 79.9929V77.1649C91.4658 77.2116 91.1438 77.3563 90.9012 77.5989C90.6678 77.8416 90.5512 78.1683 90.5512 78.5789ZM92.7772 84.4589C93.1878 84.3936 93.5098 84.2303 93.7432 83.9689C93.9765 83.6983 94.0932 83.3763 94.0932 83.0029C94.0932 82.6296 93.9765 82.3403 93.7432 82.1349C93.5192 81.9203 93.1972 81.7476 92.7772 81.6169V84.4589ZM97.8366 83.5629V82.3589L102.541 75.6109H104.473V82.1769H105.775V83.5629H104.473V85.6909H102.905V83.5629H97.8366ZM102.975 77.2349L99.6706 82.1769H102.975V77.2349ZM109.085 82.9189C109.178 83.3856 109.379 83.7403 109.687 83.9829C109.995 84.2256 110.41 84.3469 110.933 84.3469C111.596 84.3469 112.081 84.0856 112.389 83.5629C112.697 83.0403 112.851 82.1489 112.851 80.8889C112.627 81.2063 112.31 81.4536 111.899 81.6309C111.498 81.7989 111.059 81.8829 110.583 81.8829C109.976 81.8829 109.426 81.7616 108.931 81.5189C108.436 81.2669 108.044 80.8983 107.755 80.4129C107.475 79.9183 107.335 79.3209 107.335 78.6209C107.335 77.5943 107.634 76.7776 108.231 76.1709C108.838 75.5549 109.668 75.2469 110.723 75.2469C111.992 75.2469 112.893 75.6716 113.425 76.5209C113.966 77.3609 114.237 78.6536 114.237 80.3989C114.237 81.6029 114.134 82.5876 113.929 83.3529C113.733 84.1183 113.388 84.6969 112.893 85.0889C112.398 85.4809 111.712 85.6769 110.835 85.6769C109.836 85.6769 109.066 85.4156 108.525 84.8929C107.984 84.3703 107.68 83.7123 107.615 82.9189H109.085ZM110.863 80.5389C111.423 80.5389 111.862 80.3663 112.179 80.0209C112.506 79.6663 112.669 79.1996 112.669 78.6209C112.669 77.9769 112.496 77.4776 112.151 77.1229C111.815 76.7589 111.353 76.5769 110.765 76.5769C110.177 76.5769 109.71 76.7636 109.365 77.1369C109.029 77.5009 108.861 77.9816 108.861 78.5789C108.861 79.1483 109.024 79.6196 109.351 79.9929C109.687 80.3569 110.191 80.5389 110.863 80.5389ZM121.374 72.4749L117.566 88.1409H115.998L119.792 72.4749H121.374ZM132.723 77.8509C133.33 77.8509 133.871 77.9769 134.347 78.2289C134.833 78.4809 135.211 78.8543 135.481 79.3489C135.761 79.8436 135.901 80.4409 135.901 81.1409V85.6909H134.319V81.3789C134.319 80.6883 134.147 80.1609 133.801 79.7969C133.456 79.4236 132.985 79.2369 132.387 79.2369C131.79 79.2369 131.314 79.4236 130.959 79.7969C130.614 80.1609 130.441 80.6883 130.441 81.3789V85.6909H128.859V81.3789C128.859 80.6883 128.687 80.1609 128.341 79.7969C127.996 79.4236 127.525 79.2369 126.927 79.2369C126.33 79.2369 125.854 79.4236 125.499 79.7969C125.154 80.1609 124.981 80.6883 124.981 81.3789V85.6909H123.385V77.9769H124.981V78.8589C125.243 78.5416 125.574 78.2943 125.975 78.1169C126.377 77.9396 126.806 77.8509 127.263 77.8509C127.879 77.8509 128.43 77.9816 128.915 78.2429C129.401 78.5043 129.774 78.8823 130.035 79.3769C130.269 78.9103 130.633 78.5416 131.127 78.2709C131.622 77.9909 132.154 77.8509 132.723 77.8509ZM141.278 85.8169C140.55 85.8169 139.892 85.6536 139.304 85.3269C138.716 84.9909 138.254 84.5243 137.918 83.9269C137.582 83.3203 137.414 82.6203 137.414 81.8269C137.414 81.0429 137.587 80.3476 137.932 79.7409C138.277 79.1343 138.749 78.6676 139.346 78.3409C139.943 78.0143 140.611 77.8509 141.348 77.8509C142.085 77.8509 142.753 78.0143 143.35 78.3409C143.947 78.6676 144.419 79.1343 144.764 79.7409C145.109 80.3476 145.282 81.0429 145.282 81.8269C145.282 82.6109 145.105 83.3063 144.75 83.9129C144.395 84.5196 143.91 84.9909 143.294 85.3269C142.687 85.6536 142.015 85.8169 141.278 85.8169ZM141.278 84.4309C141.689 84.4309 142.071 84.3329 142.426 84.1369C142.79 83.9409 143.084 83.6469 143.308 83.2549C143.532 82.8629 143.644 82.3869 143.644 81.8269C143.644 81.2669 143.537 80.7956 143.322 80.4129C143.107 80.0209 142.823 79.7269 142.468 79.5309C142.113 79.3349 141.731 79.2369 141.32 79.2369C140.909 79.2369 140.527 79.3349 140.172 79.5309C139.827 79.7269 139.551 80.0209 139.346 80.4129C139.141 80.7956 139.038 81.2669 139.038 81.8269C139.038 82.6576 139.248 83.3016 139.668 83.7589C140.097 84.2069 140.634 84.4309 141.278 84.4309ZM150.752 77.8509C151.358 77.8509 151.9 77.9769 152.376 78.2289C152.861 78.4809 153.239 78.8543 153.51 79.3489C153.78 79.8436 153.916 80.4409 153.916 81.1409V85.6909H152.334V81.3789C152.334 80.6883 152.161 80.1609 151.816 79.7969C151.47 79.4236 150.999 79.2369 150.402 79.2369C149.804 79.2369 149.328 79.4236 148.974 79.7969C148.628 80.1609 148.456 80.6883 148.456 81.3789V85.6909H146.86V77.9769H148.456V78.8589C148.717 78.5416 149.048 78.2943 149.45 78.1169C149.86 77.9396 150.294 77.8509 150.752 77.8509ZM157.814 79.2789V83.5489C157.814 83.8383 157.879 84.0483 158.01 84.1789C158.15 84.3003 158.383 84.3609 158.71 84.3609H159.69V85.6909H158.43C157.711 85.6909 157.16 85.5229 156.778 85.1869C156.395 84.8509 156.204 84.3049 156.204 83.5489V79.2789H155.294V77.9769H156.204V76.0589H157.814V77.9769H159.69V79.2789H157.814ZM165.151 77.8509C165.739 77.8509 166.261 77.9769 166.719 78.2289C167.185 78.4809 167.549 78.8543 167.811 79.3489C168.081 79.8436 168.217 80.4409 168.217 81.1409V85.6909H166.635V81.3789C166.635 80.6883 166.462 80.1609 166.117 79.7969C165.771 79.4236 165.3 79.2369 164.703 79.2369C164.105 79.2369 163.629 79.4236 163.275 79.7969C162.929 80.1609 162.757 80.6883 162.757 81.3789V85.6909H161.161V75.3309H162.757V78.8729C163.027 78.5463 163.368 78.2943 163.779 78.1169C164.199 77.9396 164.656 77.8509 165.151 77.8509Z" fill="white"/>
<path d="M313.456 63.3853L303.891 54.0805C303.734 53.9262 303.547 53.8036 303.341 53.72C303.135 53.6364 302.914 53.5934 302.691 53.5934C302.468 53.5934 302.247 53.6364 302.041 53.72C301.835 53.8036 301.649 53.9262 301.491 54.0805C301.177 54.3891 301 54.8065 301 55.2416C301 55.6766 301.177 56.094 301.491 56.4026L309.856 64.6369L301.491 72.7888C301.177 73.0974 301 73.5148 301 73.9499C301 74.3849 301.177 74.8023 301.491 75.1109C301.648 75.2665 301.835 75.3903 302.041 75.4751C302.246 75.5599 302.468 75.604 302.691 75.605C302.915 75.604 303.136 75.5599 303.342 75.4751C303.548 75.3903 303.735 75.2665 303.891 75.1109L313.456 65.8062C313.627 65.6519 313.764 65.4648 313.858 65.2564C313.952 65.0481 314 64.8231 314 64.5957C314 64.3683 313.952 64.1433 313.858 63.935C313.764 63.7267 313.627 63.5395 313.456 63.3853V63.3853Z" fill="white"/>
</svg>
