<svg width="115" height="115" viewBox="0 0 115 115" fill="none" xmlns="http://www.w3.org/2000/svg">
<rect width="115" height="115" rx="25" fill="#404EFB"/>
<path d="M44.9 43.5092C44.9 51.0064 50.9978 57.1 58.5 57.1C66.0024 57.1 72.1 50.9879 72.1 43.4908C72.1 35.9936 66.0022 29.9 58.5 29.9C50.9977 29.9 44.9 35.9937 44.9 43.5092ZM48.7685 43.4908C48.7685 38.1387 53.1259 33.766 58.5 33.766C63.8741 33.766 68.2315 38.1387 68.2315 43.4908C68.2315 48.8429 63.8558 53.2157 58.5 53.2157C53.1442 53.2157 48.7685 48.8429 48.7685 43.4908Z" fill="white" stroke="#A0A3B1" stroke-width="0.2"/>
<path d="M71.148 88H45.852C39.3069 88 34 81.9552 34 74.5C34 67.0448 39.329 61 45.852 61H71.148C77.6931 61 83 67.07 83 74.5C83 81.93 77.6931 88 71.148 88ZM45.852 66.0373C41.7613 66.0373 38.4224 69.8405 38.4224 74.5C38.4224 79.1595 41.7613 82.9627 45.852 82.9627H71.148C75.2387 82.9627 78.5776 79.1595 78.5776 74.5C78.5776 69.8405 75.2387 66.0373 71.148 66.0373H45.852Z" fill="white"/>
</svg>
