<svg width="339" height="122" viewBox="0 0 339 122" fill="none" xmlns="http://www.w3.org/2000/svg">
<rect width="339" height="121.542" rx="10" fill="#1E1E3F"/>
<mask id="mask0" mask-type="alpha" maskUnits="userSpaceOnUse" x="0" y="0" width="339" height="122">
<rect width="339" height="121.542" rx="10" fill="#C4C4C4"/>
</mask>
<g mask="url(#mask0)">
<path d="M52.5286 51.7457C52.5286 29.5161 74.7358 8.42371 88.8288 0H0V121.542H80.7146C84.1311 101.686 76.4438 86.6439 68.3298 79.4236C60.2159 72.2033 52.5286 69.7268 52.5286 51.7457Z" fill="#444359"/>
<path d="M180.876 41.8596C166.512 21.2733 173.211 2.81667 178.356 -3.83838H339V55.6134C302.146 111.516 277.577 70.6982 275.372 60.4938C273.167 50.2893 270.963 15.6831 236.314 45.409C201.665 75.1349 198.83 67.5925 180.876 41.8596Z" fill="#9B9DB4" fill-opacity="0.49"/>
<path d="M222.979 125.38C222.979 147.991 209.993 166.321 193.973 166.321C177.954 166.321 164.968 147.991 164.968 125.38C161.995 86.2106 170.822 88.8502 181.618 96.38C188.915 101.469 197.868 99.7702 205.737 95.6191C220.836 87.6539 222.979 106.799 222.979 125.38Z" fill="#6C71A1"/>
</g>
<rect width="339" height="121.542" rx="10" fill="#0038FF" style="mix-blend-mode:soft-light"/>
<path d="M46.0741 58.0318C45.4941 58.0318 45.2041 57.8675 45.2041 57.5388C45.2041 57.2102 45.3008 56.9782 45.4941 56.8428C45.6875 56.6882 45.8905 56.5818 46.1031 56.5238C46.3351 56.4465 46.5478 56.3885 46.7411 56.3498C46.9345 56.2918 47.0311 56.1855 47.0311 56.0308C47.0311 55.8568 46.9925 55.7505 46.9151 55.7118C46.8378 55.6538 46.6638 55.4702 46.3931 55.1608C46.1418 54.8515 45.8035 54.3875 45.3781 53.7688C44.9721 53.1695 44.5178 52.5895 44.0151 52.0288C42.8165 50.6755 41.6758 49.9988 40.5931 49.9988C39.5105 49.9988 38.7855 50.3082 38.4181 50.9268C38.3408 51.5648 38.3021 52.3188 38.3021 53.1888C38.3021 54.0395 38.3311 54.6678 38.3891 55.0738C38.4665 55.4605 38.6211 55.8375 38.8531 56.2048L40.7091 55.7988C40.7671 55.7988 40.8541 55.8858 40.9701 56.0598C41.1055 56.2338 41.1731 56.3982 41.1731 56.5528C41.1731 56.6882 41.0958 56.8235 40.9411 56.9588C40.7865 57.0748 40.6028 57.1715 40.3901 57.2488C40.0421 57.4035 39.6651 57.4808 39.2591 57.4808H29.3701C29.3701 57.4228 29.3701 57.3745 29.3701 57.3358C29.3701 56.9492 29.4378 56.6978 29.5731 56.5818C29.7665 56.4078 30.0178 56.2918 30.3271 56.2338C30.6558 56.1758 30.9361 56.0888 31.1681 55.9728C31.4195 55.8375 31.6515 55.7602 31.8641 55.7408L31.8931 54.8418C31.8931 53.8752 31.8351 52.9665 31.7191 52.1158C31.6225 51.2652 31.5161 50.2888 31.4001 49.1868H30.2401C30.2401 48.8582 30.3368 48.5585 30.5301 48.2878C30.7235 47.9978 31.0135 47.8528 31.4001 47.8528V39.6748C31.2455 39.7135 30.9651 39.7715 30.5591 39.8488L28.9931 40.1388C28.5291 40.1388 28.2971 39.8392 28.2971 39.2398L28.3261 38.8048C29.3508 38.4182 30.7525 38.1378 32.5311 37.9638C32.9371 37.9252 33.2368 37.9058 33.4301 37.9058L36.1851 37.9348L39.2881 37.9638H39.6941C39.8101 37.9445 39.9455 37.9348 40.1001 37.9348H40.1871C40.6125 37.9348 40.8251 38.1572 40.8251 38.6018C40.8251 38.7758 40.6028 38.9208 40.1581 39.0368C39.7328 39.1335 39.4138 39.2302 39.2011 39.3268C38.9885 39.4042 38.8725 39.5202 38.8531 39.6748C38.5438 41.0088 38.3891 43.3772 38.3891 46.7798V47.0988L38.4181 47.9978V48.2878C38.8241 47.9785 39.5975 47.2922 40.7381 46.2288L43.6091 43.5608C44.4211 42.8648 45.1751 42.1882 45.8711 41.5308C47.4178 40.1195 48.3748 39.2785 48.7421 39.0078C49.1288 38.7178 49.3898 38.5535 49.5251 38.5148C49.6798 38.4568 49.8731 38.4278 50.1051 38.4278C50.3565 38.4278 50.5498 38.4375 50.6851 38.4568C50.8398 38.4762 50.9558 38.6212 51.0331 38.8918C50.5305 39.5492 49.8441 40.2838 48.9741 41.0958L46.2481 43.5898L43.5511 46.0838C42.6811 46.8958 41.9948 47.6305 41.4921 48.2878C42.7101 48.8098 44.0151 49.8635 45.4071 51.4488C45.9871 52.1062 46.5478 52.7828 47.0891 53.4788C47.6305 54.1555 48.1525 54.7548 48.6551 55.2768C49.1771 55.7795 49.6605 56.1082 50.1051 56.2628C50.5498 56.3982 51.0911 56.4658 51.7291 56.4658C51.7291 57.0265 50.9655 57.4422 49.4381 57.7128C48.3941 57.8868 47.4081 57.9835 46.4801 58.0028L46.0741 58.0318ZM57.7364 57.7708C56.7118 57.7708 55.3874 57.9062 53.7634 58.1768C53.2801 58.1768 53.0384 57.9255 53.0384 57.4228C53.0384 57.0555 53.1351 56.8235 53.3284 56.7268C53.5411 56.6302 53.7828 56.5818 54.0534 56.5818C54.3241 56.5625 54.5851 56.5432 54.8364 56.5238C55.1071 56.5045 55.2908 56.3982 55.3874 56.2048V55.9148L55.4164 55.0158V54.7258C55.4164 52.4058 55.2231 50.4048 54.8364 48.7228C54.6044 48.3748 54.3241 48.1718 53.9954 48.1138C53.6668 48.0558 53.3478 48.0268 53.0384 48.0268C52.7484 48.0075 52.4874 47.9688 52.2554 47.9108C52.0428 47.8335 51.9364 47.6595 51.9364 47.3888C51.9364 47.1182 52.0718 46.9055 52.3424 46.7508C52.6324 46.5962 52.9611 46.4608 53.3284 46.3448C53.7151 46.2288 54.0824 46.1322 54.4304 46.0548C54.7978 45.9582 55.2038 45.8228 55.6484 45.6488L57.4754 44.9818C58.2681 44.6918 58.9351 44.5468 59.4764 44.5468C60.0178 44.5468 60.3174 44.6048 60.3754 44.7208C60.4528 44.8175 60.4914 45.0592 60.4914 45.4458C60.4914 45.8325 60.4334 46.1418 60.3174 46.3738L60.2884 51.3908C60.2884 52.4542 60.3174 53.1405 60.3754 53.4498C60.4528 53.8558 60.5688 54.3488 60.7234 54.9288C60.8974 55.5088 61.1004 55.9052 61.3324 56.1178C61.5644 56.3112 61.8061 56.4948 62.0574 56.6688L62.7534 57.0748C62.9468 57.2102 63.0434 57.3262 63.0434 57.4228C63.0434 57.7515 62.9274 57.9545 62.6954 58.0318C62.4634 58.1285 62.2024 58.1768 61.9124 58.1768L61.5644 58.1478C60.7524 57.8965 59.4764 57.7708 57.7364 57.7708ZM55.8804 43.5028C54.5851 43.5028 53.9374 42.7488 53.9374 41.2408C53.9374 39.7135 54.7881 38.5245 56.4894 37.6738C57.3014 37.6738 57.9491 37.9058 58.4324 38.3698C58.9351 38.8145 59.1864 39.4332 59.1864 40.2258C59.1864 41.0185 58.8191 41.7628 58.0844 42.4588C57.3498 43.1548 56.6151 43.5028 55.8804 43.5028ZM75.1525 40.8638C74.8045 40.8638 74.4855 40.9412 74.1955 41.0958C73.9249 41.2505 73.6349 41.3278 73.3255 41.3278C73.0162 41.3278 72.8035 41.2602 72.6875 41.1248C72.5909 40.9895 72.5425 40.8348 72.5425 40.6608C72.5425 40.4868 72.6102 40.3128 72.7455 40.1388C72.8809 39.9648 73.0259 39.8682 73.1805 39.8488C73.3352 39.8102 73.6735 39.7232 74.1955 39.5878C74.7175 39.4525 75.2782 39.2978 75.8775 39.1238L77.5595 38.6308C78.1009 38.5148 78.4102 38.4375 78.4875 38.3988C78.7969 38.3022 79.0289 38.1958 79.1835 38.0798C79.3189 37.9832 79.4252 37.9155 79.5025 37.8768C79.6765 37.7995 79.9085 37.7608 80.1985 37.7608C80.4885 37.7608 80.6819 37.8285 80.7785 37.9638C80.8752 38.0798 80.9235 38.2828 80.9235 38.5728C80.9235 38.8435 80.8559 39.0658 80.7205 39.2398C80.5852 39.4138 80.4885 39.7908 80.4305 40.3708L80.1405 42.7778L79.7345 45.9098C79.4445 48.2492 79.2609 49.9602 79.1835 51.0428C79.1255 52.1255 79.0772 52.8118 79.0385 53.1018L78.9225 53.9428C78.8259 54.6388 78.7775 55.1995 78.7775 55.6248C78.7775 56.0308 78.8162 56.3982 78.8935 56.7268C79.4542 56.6882 79.9375 56.5335 80.3435 56.2628C80.7495 55.9922 81.1459 55.6635 81.5325 55.2768C81.9965 55.3155 82.2285 55.5475 82.2285 55.9728C82.2285 56.3788 82.0932 56.7268 81.8225 57.0168C81.5519 57.2875 81.2232 57.5098 80.8365 57.6838C80.1019 58.0125 79.4349 58.1768 78.8355 58.1768C78.2555 58.1768 77.8109 58.0898 77.5015 57.9158C77.1922 57.7418 76.9022 57.5195 76.6315 57.2488C76.1869 56.8042 75.7809 56.2048 75.4135 55.4508C74.6789 56.3788 73.7509 57.1425 72.6295 57.7418C71.5082 58.3605 70.3869 58.6698 69.2655 58.6698C68.1635 58.6698 67.2935 58.4958 66.6555 58.1478C65.9982 57.7805 65.4762 57.3068 65.0895 56.7268C64.3549 55.6055 63.9875 54.0395 63.9875 52.0288C63.9875 51.1588 64.2485 50.3372 64.7705 49.5638C65.2925 48.7712 65.9112 48.0848 66.6265 47.5048C67.3612 46.9055 68.0959 46.4318 68.8305 46.0838C69.5845 45.7358 70.2709 45.5618 70.8895 45.5618C71.5082 45.5618 72.0592 45.6198 72.5425 45.7358C73.0259 45.8325 73.4125 45.9485 73.7025 46.0838C74.0119 46.2192 74.2535 46.3545 74.4275 46.4898C74.6015 46.6252 74.7659 46.7218 74.9205 46.7798C75.1912 46.2578 75.3459 45.6972 75.3845 45.0978C75.4425 44.4792 75.4715 43.6188 75.4715 42.5168C75.4715 41.4148 75.3652 40.8638 75.1525 40.8638ZM68.9175 52.7828C68.9562 53.4402 69.0722 54.0782 69.2655 54.6968C69.9229 55.9148 70.5899 56.6398 71.2665 56.8718C71.2859 56.8718 71.3052 56.8718 71.3245 56.8718C72.3105 56.8718 73.1225 56.3788 73.7605 55.3928C74.2825 54.6195 74.6789 53.5948 74.9495 52.3188C75.1429 51.4295 75.2395 50.7045 75.2395 50.1438C75.2395 49.5832 75.1622 49.1482 75.0075 48.8388C74.8529 48.5295 74.6402 48.2395 74.3695 47.9688C73.7509 47.3502 73.1322 47.0408 72.5135 47.0408C72.4942 47.0408 72.4845 47.0408 72.4845 47.0408C71.8465 47.0602 71.3149 47.1762 70.8895 47.3888C70.4642 47.5822 70.0969 47.8625 69.7875 48.2298C69.4782 48.5778 69.2365 48.9935 69.0625 49.4768C68.8885 49.9602 68.8015 50.4628 68.8015 50.9848C68.8015 51.5068 68.8402 52.1062 68.9175 52.7828ZM90.4947 46.0258C88.89 46.0258 88.0877 46.2675 88.0877 46.7508C88.0877 47.3502 88.2713 47.8818 88.6387 48.3458C89.006 48.8098 89.4603 49.2545 90.0017 49.6798C90.543 50.0858 91.1327 50.4822 91.7707 50.8688C92.428 51.2555 93.0273 51.6615 93.5687 52.0868C94.8447 53.0922 95.4827 54.1458 95.4827 55.2478C95.4827 56.6012 94.7287 57.5292 93.2207 58.0318C92.2927 58.3412 91.1327 58.4958 89.7407 58.4958C88.368 58.4958 87.2273 58.3895 86.3187 58.1768C85.4293 57.9642 84.7043 57.8192 84.1437 57.7418C83.6023 57.6838 83.2737 57.5775 83.1577 57.4228C83.061 57.2682 83.0127 57.0845 83.0127 56.8718C83.0127 56.6398 83.061 56.4368 83.1577 56.2628C83.2543 56.0695 83.3703 55.8858 83.5057 55.7118C83.8923 55.2092 84.1243 54.8515 84.2017 54.6388C84.279 54.4068 84.337 54.1942 84.3757 54.0008C84.4143 53.8462 84.4723 53.6915 84.5497 53.5368C84.7043 53.1888 84.946 53.0148 85.2747 53.0148C85.6227 53.0148 85.9127 53.2372 86.1447 53.6818C86.396 54.1265 86.6763 54.6195 86.9857 55.1608C87.3143 55.6828 87.701 56.1662 88.1457 56.6108C88.6097 57.0555 89.2187 57.2778 89.9727 57.2778C91.268 57.2778 91.9157 56.9202 91.9157 56.2048C91.9157 55.6055 91.239 54.7935 89.8857 53.7688C89.3057 53.3242 88.6677 52.8602 87.9717 52.3768C87.2757 51.8935 86.6377 51.4102 86.0577 50.9268C84.685 49.8055 83.9987 48.8388 83.9987 48.0268C83.9987 47.2728 84.192 46.6928 84.5787 46.2868C84.9847 45.8615 85.4777 45.5328 86.0577 45.3008C86.8503 44.9722 88.0683 44.7402 89.7117 44.6048L91.1617 44.5758L93.3657 44.5468C94.2163 44.5468 94.7287 44.6048 94.9027 44.7208C95.154 44.9142 95.2797 45.2815 95.2797 45.8228C95.2797 46.3642 95.27 46.8378 95.2507 47.2438C95.2507 47.6498 95.2313 48.0075 95.1927 48.3168C95.1153 48.9548 94.922 49.2738 94.6127 49.2738C94.1873 49.2738 93.8103 49.1095 93.4817 48.7808C93.153 48.4328 92.834 48.0558 92.5247 47.6498C92.2347 47.2438 91.9253 46.8765 91.5967 46.5478C91.2873 46.1998 90.92 46.0258 90.4947 46.0258ZM97.7732 39.5878L97.3092 38.1958C97.3092 37.5385 97.7249 37.0552 98.5562 36.7458C98.7689 36.6685 98.9815 36.6298 99.1942 36.6298C99.8322 36.6298 100.306 36.8328 100.615 37.2388C100.944 37.6255 101.108 38.1475 101.108 38.8048C101.108 39.3075 101.021 39.6652 100.847 39.8778C100.673 40.0905 100.432 40.3515 100.122 40.6608C99.8129 40.9702 99.4842 41.2602 99.1362 41.5308C98.2662 42.2268 97.5799 42.5748 97.0772 42.5748C96.5745 42.5748 96.3232 42.4782 96.3232 42.2848C96.3232 42.0915 96.4005 41.9368 96.5552 41.8208C96.6905 41.6855 96.8549 41.5405 97.0482 41.3858C97.5509 40.9798 97.8022 40.4965 97.8022 39.9358L97.7732 39.5878Z" fill="#27FCEF"/>
<path d="M110.658 57.8868C110.426 57.8868 110.31 57.7032 110.31 57.3358C110.31 56.9685 110.494 56.7848 110.861 56.7848L112.514 56.9298V47.1858L111.586 47.3018C111.2 47.3018 111.006 47.1182 111.006 46.7508C111.006 46.6155 111.209 46.4995 111.615 46.4028C112.041 46.2868 112.302 46.2288 112.398 46.2288C112.398 42.7102 112.041 40.4095 111.325 39.3268C111.132 39.0368 110.9 38.8918 110.629 38.8918L109.788 38.9498C109.382 38.9498 109.179 38.7662 109.179 38.3988C109.179 38.1475 109.315 37.9638 109.585 37.8478C110.455 37.7898 111.258 37.7608 111.992 37.7608H114.544C119.3 37.7608 122.78 38.5342 124.984 40.0808C126.183 40.9122 126.782 42.1012 126.782 43.6478C126.782 44.8078 126.454 45.8712 125.796 46.8378C125.506 47.2632 125.091 47.6692 124.549 48.0558C124.008 48.4232 123.389 48.7132 122.693 48.9258C122.017 49.1192 121.35 49.2545 120.692 49.3318C119.88 49.4285 118.856 49.4768 117.618 49.4768V56.4368L117.966 56.7848C118.082 56.7655 118.256 56.7558 118.488 56.7558H119.242C120.016 56.7558 120.509 56.7848 120.721 56.8428C121.031 56.9395 121.33 57.1618 121.62 57.5098L121.243 57.8868H110.658ZM119.329 48.1428L120.489 48.1138C121.514 48.0558 122.22 47.5242 122.606 46.5188C122.838 45.8808 122.954 45.1268 122.954 44.2568C122.954 43.3675 122.916 42.7005 122.838 42.2558C122.78 41.8112 122.655 41.4052 122.461 41.0378C121.939 40.0518 120.828 39.4138 119.126 39.1238C118.218 38.9692 117.454 38.8918 116.835 38.8918C116.835 39.0465 116.835 39.2012 116.835 39.3558C116.835 42.1398 117 44.4695 117.328 46.3448C117.444 46.9635 117.551 47.3888 117.647 47.6208C117.763 47.8528 117.928 47.9978 118.14 48.0558C118.353 48.1138 118.749 48.1428 119.329 48.1428ZM135.871 48.4908C135.871 46.9635 135.195 46.1998 133.841 46.1998C133.261 46.1998 132.855 46.4222 132.623 46.8668C132.507 47.1182 132.44 47.3985 132.42 47.7078C132.42 47.9978 132.459 48.1815 132.536 48.2588C132.633 48.3362 132.681 48.4715 132.681 48.6648C132.681 49.0128 132.478 49.2448 132.072 49.3608C131.821 49.4382 131.454 49.4768 130.97 49.4768C130.622 49.4768 130.187 49.5638 129.665 49.7378C129.143 49.9118 128.844 49.9988 128.766 49.9988C128.592 49.9988 128.457 49.8925 128.36 49.6798C128.283 49.4672 128.244 49.2642 128.244 49.0708C128.244 48.7228 128.467 48.1815 128.911 47.4468C129.375 46.6928 129.772 46.1902 130.1 45.9388C130.7 45.4942 131.251 45.1365 131.753 44.8658C132.256 44.5758 132.778 44.4308 133.319 44.4308C136.103 44.4308 137.901 45.1752 138.713 46.6638C139.177 47.5145 139.409 48.5392 139.409 49.7378C139.409 50.2598 139.342 50.7915 139.206 51.3328C139.071 51.8742 139.003 52.3962 139.003 52.8988C139.003 53.7108 139.168 54.4648 139.496 55.1608C139.922 55.7602 140.289 56.1082 140.598 56.2048C140.714 56.2048 140.821 56.1662 140.917 56.0888C141.033 56.0115 141.14 55.9728 141.236 55.9728C141.642 55.9728 141.845 56.1758 141.845 56.5818C141.845 56.9685 141.671 57.3068 141.323 57.5968C140.627 58.1768 139.96 58.4668 139.322 58.4668C138.684 58.4668 138.23 58.4282 137.959 58.3508C137.689 58.2735 137.447 58.1672 137.234 58.0318C137.022 57.8965 136.838 57.7515 136.683 57.5968L136.219 57.1618L135.784 56.7268C135.668 56.5915 135.601 56.5238 135.581 56.5238C134.267 58.1092 132.604 58.9018 130.593 58.9018C129.453 58.9018 128.515 58.5055 127.78 57.7128C127.065 56.9202 126.707 56.1758 126.707 55.4798C126.707 54.1652 127.365 53.1018 128.679 52.2898C130.033 51.4778 132.082 50.8785 134.827 50.4918C135.098 50.4725 135.311 50.4048 135.465 50.2888C135.736 50.0955 135.871 49.4962 135.871 48.4908ZM131.84 53.1018C131.628 53.4498 131.521 53.7785 131.521 54.0878C131.521 54.8225 131.589 55.4992 131.724 56.1178C131.86 56.7365 132.092 57.0652 132.42 57.1038C132.904 57.1038 133.319 56.9685 133.667 56.6978C134.286 56.2145 134.615 55.7312 134.653 55.2478L135.001 51.6228C133.493 51.6228 132.44 52.1158 131.84 53.1018ZM155.477 44.8658C155.729 44.8658 155.961 44.9528 156.173 45.1268C156.405 45.2815 156.521 45.3685 156.521 45.3878V48.6938C156.521 48.8872 156.405 49.0515 156.173 49.1868C155.941 49.3222 155.719 49.3898 155.506 49.3898C155.313 49.3898 155.071 49.2545 154.781 48.9838C154.511 48.6938 154.182 48.3748 153.795 48.0268C152.771 47.1375 151.707 46.6928 150.605 46.6928C150.199 46.6928 149.832 46.9055 149.503 47.3308C149.194 47.7562 148.943 48.2105 148.749 48.6938C148.556 49.1772 148.421 49.6508 148.343 50.1148C148.227 50.7722 148.169 51.4875 148.169 52.2608C148.15 52.3188 148.14 52.3672 148.14 52.4058C148.14 53.1212 148.208 53.7495 148.343 54.2908C148.498 54.8322 148.691 55.3348 148.923 55.7988C149.658 56.6882 150.306 57.2102 150.866 57.3648C152.22 57.3648 153.505 56.7752 154.723 55.5958C154.839 55.4605 154.926 55.3155 154.984 55.1608C155.042 55.0062 155.11 54.8515 155.187 54.6968C155.361 54.3682 155.632 54.2038 155.999 54.2038C156.367 54.1845 156.608 54.2715 156.724 54.4648C156.84 54.6582 156.898 54.8515 156.898 55.0448C156.724 55.3928 156.434 55.7698 156.028 56.1758C155.642 56.5818 155.236 56.9298 154.81 57.2198C154.404 57.5098 153.969 57.7418 153.505 57.9158C152.674 58.2252 151.659 58.3798 150.46 58.3798C149.281 58.3798 148.227 58.2735 147.299 58.0608C146.391 57.8288 145.598 57.4615 144.921 56.9588C143.471 55.8568 142.746 54.0782 142.746 51.6228C142.766 49.9215 143.375 48.4908 144.573 47.3308C145.946 46.0162 147.754 45.3492 149.996 45.3298C150.576 45.3298 151.108 45.3878 151.591 45.5038C152.094 45.6005 152.703 45.6488 153.418 45.6488C154.134 45.6488 154.82 45.3878 155.477 44.8658ZM175.745 57.1908C175.745 57.6355 174.855 57.8578 173.077 57.8578C172.129 57.8578 171.52 57.8288 171.25 57.7708C170.998 57.7128 170.699 57.6355 170.351 57.5388C170.003 57.4422 169.664 57.2198 169.336 56.8718C169.026 56.5045 168.746 56.0985 168.495 55.6538C168.263 55.1898 168.05 54.7065 167.857 54.2038C167.644 53.7205 167.422 53.2662 167.19 52.8408C166.648 51.8935 166.01 51.4102 165.276 51.3908C164.947 51.3908 164.744 51.4102 164.667 51.4488L164.29 51.7968C164.251 52.1062 164.222 52.3575 164.203 52.5508C164.183 52.7442 164.164 52.9278 164.145 53.1018C164.125 53.2758 164.116 53.4015 164.116 53.4788C164.116 53.5562 164.125 53.7302 164.145 54.0008C164.183 54.2522 164.203 54.5228 164.203 54.8128C164.222 55.4895 164.251 55.9438 164.29 56.1758C164.348 56.3692 164.493 56.4852 164.725 56.5238L165.479 56.6398C165.749 56.6785 165.991 56.7558 166.204 56.8718C166.416 56.9878 166.523 57.2005 166.523 57.5098C166.523 57.8192 166.397 57.9738 166.146 57.9738C165.991 57.9738 165.74 57.9835 165.392 58.0028C165.044 58.0222 164.647 58.0415 164.203 58.0608C163.758 58.0802 163.294 58.0995 162.811 58.1188L161.361 58.2348C160.916 58.2542 160.52 58.2735 160.172 58.2928C159.824 58.3122 159.563 58.3315 159.389 58.3508C158.77 58.3508 158.461 58.1092 158.461 57.6258C158.461 57.3745 158.538 57.1812 158.693 57.0458C158.847 56.8912 159.012 56.7462 159.186 56.6108C159.379 56.4562 159.553 56.2822 159.708 56.0888C159.862 55.8955 159.94 55.6152 159.94 55.2478C160.21 53.2952 160.346 51.9032 160.346 51.0718V48.8098C160.346 46.5285 160.21 44.4985 159.94 42.7198C159.843 42.1978 159.563 41.8982 159.099 41.8208C158.905 41.7822 158.702 41.7435 158.49 41.7048C158.277 41.6468 158.093 41.5115 157.939 41.2988L157.91 41.1828C157.91 40.9122 158.035 40.7092 158.287 40.5738C158.538 40.4385 158.789 40.3708 159.041 40.3708L159.215 40.3998C159.505 40.2838 160.017 40.0615 160.752 39.7328L162.405 38.9498C162.791 38.7758 163.043 38.6695 163.159 38.6308C163.275 38.5728 163.391 38.4955 163.507 38.3988L163.855 38.0508C164.183 37.7802 164.464 37.6448 164.696 37.6448C165.044 37.6448 165.218 37.9058 165.218 38.4278C165.218 38.9498 165.15 39.3558 165.015 39.6458C164.879 41.2118 164.783 43.0195 164.725 45.0688C164.667 47.1182 164.638 48.1815 164.638 48.2588V48.6068L164.667 49.5348V49.8248C166.639 48.6842 168.34 47.4178 169.771 46.0258C169.5 45.9872 169.22 45.9292 168.93 45.8518C168.659 45.7552 168.524 45.5328 168.524 45.1848C168.524 44.6628 169.094 44.4018 170.235 44.4018C172.381 44.4018 173.454 44.7498 173.454 45.4458C173.454 45.9485 172.825 46.1998 171.569 46.1998L167.915 49.0708C168.92 49.6122 170.003 50.7142 171.163 52.3768L172.439 54.2618C172.845 54.8612 173.164 55.2768 173.396 55.5088C173.647 55.7408 173.889 55.9052 174.121 56.0018C174.372 56.0792 174.614 56.1758 174.846 56.2918C175.097 56.3885 175.31 56.5045 175.484 56.6398C175.658 56.7752 175.745 56.9588 175.745 57.1908ZM185.29 48.4908C185.29 46.9635 184.614 46.1998 183.26 46.1998C182.68 46.1998 182.274 46.4222 182.042 46.8668C181.926 47.1182 181.859 47.3985 181.839 47.7078C181.839 47.9978 181.878 48.1815 181.955 48.2588C182.052 48.3362 182.1 48.4715 182.1 48.6648C182.1 49.0128 181.897 49.2448 181.491 49.3608C181.24 49.4382 180.873 49.4768 180.389 49.4768C180.041 49.4768 179.606 49.5638 179.084 49.7378C178.562 49.9118 178.263 49.9988 178.185 49.9988C178.011 49.9988 177.876 49.8925 177.779 49.6798C177.702 49.4672 177.663 49.2642 177.663 49.0708C177.663 48.7228 177.886 48.1815 178.33 47.4468C178.794 46.6928 179.191 46.1902 179.519 45.9388C180.119 45.4942 180.67 45.1365 181.172 44.8658C181.675 44.5758 182.197 44.4308 182.738 44.4308C185.522 44.4308 187.32 45.1752 188.132 46.6638C188.596 47.5145 188.828 48.5392 188.828 49.7378C188.828 50.2598 188.761 50.7915 188.625 51.3328C188.49 51.8742 188.422 52.3962 188.422 52.8988C188.422 53.7108 188.587 54.4648 188.915 55.1608C189.341 55.7602 189.708 56.1082 190.017 56.2048C190.133 56.2048 190.24 56.1662 190.336 56.0888C190.452 56.0115 190.559 55.9728 190.655 55.9728C191.061 55.9728 191.264 56.1758 191.264 56.5818C191.264 56.9685 191.09 57.3068 190.742 57.5968C190.046 58.1768 189.379 58.4668 188.741 58.4668C188.103 58.4668 187.649 58.4282 187.378 58.3508C187.108 58.2735 186.866 58.1672 186.653 58.0318C186.441 57.8965 186.257 57.7515 186.102 57.5968L185.638 57.1618L185.203 56.7268C185.087 56.5915 185.02 56.5238 185 56.5238C183.686 58.1092 182.023 58.9018 180.012 58.9018C178.872 58.9018 177.934 58.5055 177.199 57.7128C176.484 56.9202 176.126 56.1758 176.126 55.4798C176.126 54.1652 176.784 53.1018 178.098 52.2898C179.452 51.4778 181.501 50.8785 184.246 50.4918C184.517 50.4725 184.73 50.4048 184.884 50.2888C185.155 50.0955 185.29 49.4962 185.29 48.4908ZM181.259 53.1018C181.047 53.4498 180.94 53.7785 180.94 54.0878C180.94 54.8225 181.008 55.4992 181.143 56.1178C181.279 56.7365 181.511 57.0652 181.839 57.1038C182.323 57.1038 182.738 56.9685 183.086 56.6978C183.705 56.2145 184.034 55.7312 184.072 55.2478L184.42 51.6228C182.912 51.6228 181.859 52.1158 181.259 53.1018ZM206.205 46.9538C206.359 48.5972 206.437 49.9795 206.437 51.1008C206.437 52.2028 206.398 53.2275 206.321 54.1748C206.263 55.1028 206.127 56.0115 205.915 56.9008C205.335 59.2982 204.039 61.4442 202.029 63.3388C200.521 64.7695 198.549 65.4848 196.113 65.4848C194.972 65.4848 194.015 65.0982 193.242 64.3248C192.507 63.5902 192.14 62.5848 192.14 61.3088C192.14 60.3422 192.256 59.7235 192.488 59.4528C192.874 58.9888 193.522 58.6602 194.431 58.4668L195.156 58.4378C195.62 58.4378 195.977 58.4185 196.229 58.3798C196.712 58.6312 196.954 59.0662 196.954 59.6848L196.722 62.0338C196.722 62.1305 196.78 62.4012 196.896 62.8458C197.128 63.6385 197.292 64.0542 197.389 64.0928C198.278 63.9188 199.032 63.4742 199.651 62.7588C200.269 62.0628 200.762 61.2508 201.13 60.3228C201.826 58.5442 202.174 56.6302 202.174 54.5808C201.69 55.3542 200.888 55.9728 199.767 56.4368C198.8 56.8428 197.862 57.0458 196.954 57.0458C196.277 57.0458 195.629 56.9298 195.011 56.6978C193.754 56.2532 192.894 55.4508 192.43 54.2908C192.198 53.7108 192.082 53.0535 192.082 52.3188C192.082 51.5648 192.207 50.8012 192.459 50.0278C192.729 49.2352 193.116 48.5102 193.619 47.8528C194.759 46.3835 196.219 45.6488 197.998 45.6488C198.423 45.6488 198.993 45.8325 199.709 46.1998C200.907 46.8185 201.7 47.3502 202.087 47.7948C202.009 47.5628 201.971 47.2052 201.971 46.7218V45.9098C201.971 45.4265 202.154 45.1365 202.522 45.0398C202.889 44.9238 203.285 44.8658 203.711 44.8658C204.136 44.8658 204.542 44.8755 204.929 44.8948C205.335 44.8948 205.712 44.9142 206.06 44.9528C206.852 45.0688 207.249 45.3202 207.249 45.7068C207.249 45.9002 207.142 46.0838 206.93 46.2578C206.736 46.4318 206.582 46.5672 206.466 46.6638C206.35 46.7412 206.263 46.8378 206.205 46.9538ZM199.912 55.1608C200.26 55.0642 200.569 54.8612 200.84 54.5518C201.478 53.8558 201.797 52.7345 201.797 51.1878C201.797 49.9892 201.565 49.1288 201.101 48.6068C200.637 48.0848 200.018 47.8238 199.245 47.8238C198.684 47.8238 198.249 48.2975 197.94 49.2448C197.708 49.9408 197.592 50.8688 197.592 52.0288C197.592 53.1695 197.727 54.0105 197.998 54.5518C198.288 55.0738 198.587 55.3348 198.897 55.3348C199.225 55.3348 199.564 55.2768 199.912 55.1608ZM215.477 53.7978L215.448 54.1748C215.448 55.0255 215.66 55.7698 216.086 56.4078C216.24 56.6205 216.376 56.7655 216.492 56.8428C216.608 56.9008 216.762 56.9298 216.956 56.9298H217.362C218.715 56.9298 219.972 56.6108 221.132 55.9728C221.344 55.8568 221.557 55.6828 221.77 55.4508L222.466 54.6968C222.678 54.4648 222.881 54.2618 223.075 54.0878C223.268 53.8945 223.442 53.7978 223.597 53.7978C223.751 53.7978 223.867 53.8848 223.945 54.0588C224.022 54.2328 224.061 54.3682 224.061 54.4648C224.041 54.6582 223.8 55.0158 223.336 55.5378C222.833 56.0792 222.282 56.5238 221.683 56.8718C221.083 57.2005 220.436 57.4808 219.74 57.7128C218.406 58.1382 217.072 58.3508 215.738 58.3508C215.718 58.3702 215.699 58.3798 215.68 58.3798C214.365 58.3798 213.253 58.0512 212.345 57.3938C211.417 56.7365 210.585 55.9052 209.851 54.8998C209.483 54.3972 209.271 53.8655 209.213 53.3048C209.155 52.7248 209.126 52.0772 209.126 51.3618C209.126 50.6272 209.425 49.8345 210.025 48.9838C210.624 48.1332 211.359 47.3695 212.229 46.6928C213.099 45.9968 214.027 45.4362 215.013 45.0108C216.018 44.5855 216.849 44.3728 217.507 44.3728C218.164 44.3728 218.802 44.4308 219.421 44.5468C220.02 44.6242 220.59 44.7982 221.132 45.0688C222.408 45.6875 223.046 46.6155 223.046 47.8528C223.046 49.4768 222.176 50.8688 220.436 52.0288C218.966 53.0342 217.313 53.6238 215.477 53.7978ZM215.1 51.6518C215.1 51.8452 215.196 52.0095 215.39 52.1448C215.583 52.2802 215.854 52.3478 216.202 52.3478C216.221 52.3478 216.231 52.3478 216.231 52.3478C216.888 52.3478 217.594 51.7775 218.348 50.6368C219.063 49.5735 219.421 48.6262 219.421 47.7948C219.421 47.2922 219.314 46.8958 219.102 46.6058C218.715 46.0838 218.299 45.8228 217.855 45.8228C217.429 45.8228 217.052 46.0355 216.724 46.4608C216.376 46.8862 216.086 47.3888 215.854 47.9688C215.351 49.2448 215.1 50.4725 215.1 51.6518Z" fill="white"/>
<path d="M35.2461 82.9189C35.2461 83.3856 35.1295 83.8243 34.8961 84.2349C34.6721 84.6456 34.3361 84.9909 33.8881 85.2709C33.4495 85.5509 32.9268 85.7189 32.3201 85.7749V86.9089H31.4101V85.7749C30.5328 85.6909 29.8235 85.4156 29.2821 84.9489C28.7408 84.4823 28.4701 83.8663 28.4701 83.1009H30.1781C30.2061 83.4649 30.3228 83.7683 30.5281 84.0109C30.7335 84.2443 31.0275 84.3936 31.4101 84.4589V81.3789C30.7848 81.2203 30.2761 81.0616 29.8841 80.9029C29.4921 80.7349 29.1561 80.4736 28.8761 80.1189C28.6055 79.7643 28.4701 79.2789 28.4701 78.6629C28.4701 77.8883 28.7408 77.2489 29.2821 76.7449C29.8235 76.2316 30.5328 75.9329 31.4101 75.8489V74.7149H32.3201V75.8489C33.1415 75.9236 33.7995 76.1849 34.2941 76.6329C34.7981 77.0716 35.0828 77.6783 35.1481 78.4529H33.4401C33.4121 78.1636 33.3001 77.9069 33.1041 77.6829C32.9081 77.4496 32.6468 77.2909 32.3201 77.2069V80.2309C32.9455 80.3803 33.4541 80.5389 33.8461 80.7069C34.2381 80.8656 34.5695 81.1223 34.8401 81.4769C35.1108 81.8223 35.2461 82.3029 35.2461 82.9189ZM30.0941 78.5789C30.0941 78.9616 30.2061 79.2603 30.4301 79.4749C30.6635 79.6896 30.9901 79.8623 31.4101 79.9929V77.1649C31.0088 77.2116 30.6868 77.3563 30.4441 77.5989C30.2108 77.8416 30.0941 78.1683 30.0941 78.5789ZM32.3201 84.4589C32.7308 84.3936 33.0528 84.2303 33.2861 83.9689C33.5195 83.6983 33.6361 83.3763 33.6361 83.0029C33.6361 82.6296 33.5195 82.3403 33.2861 82.1349C33.0621 81.9203 32.7401 81.7476 32.3201 81.6169V84.4589ZM38.4576 83.5209C39.3536 82.7463 40.0583 82.1116 40.5716 81.6169C41.0943 81.1129 41.5283 80.5903 41.8736 80.0489C42.2189 79.5076 42.3916 78.9663 42.3916 78.4249C42.3916 77.8649 42.2563 77.4263 41.9856 77.1089C41.7243 76.7916 41.3089 76.6329 40.7396 76.6329C40.1889 76.6329 39.7596 76.8103 39.4516 77.1649C39.1529 77.5103 38.9943 77.9769 38.9756 78.5649H37.4356C37.4636 77.5009 37.7809 76.6889 38.3876 76.1289C39.0036 75.5596 39.7829 75.2749 40.7256 75.2749C41.7429 75.2749 42.5363 75.5549 43.1056 76.1149C43.6843 76.6749 43.9736 77.4216 43.9736 78.3549C43.9736 79.0269 43.8009 79.6756 43.4556 80.3009C43.1196 80.9169 42.7136 81.4723 42.2376 81.9669C41.7709 82.4523 41.1736 83.0169 40.4456 83.6609L39.8156 84.2209H44.2536V85.5509H37.4496V84.3889L38.4576 83.5209ZM47.6437 82.9189C47.737 83.3856 47.9377 83.7403 48.2457 83.9829C48.5537 84.2256 48.969 84.3469 49.4917 84.3469C50.1543 84.3469 50.6397 84.0856 50.9477 83.5629C51.2557 83.0403 51.4097 82.1489 51.4097 80.8889C51.1857 81.2063 50.8683 81.4536 50.4577 81.6309C50.0563 81.7989 49.6177 81.8829 49.1417 81.8829C48.535 81.8829 47.9843 81.7616 47.4897 81.5189C46.995 81.2669 46.603 80.8983 46.3137 80.4129C46.0337 79.9183 45.8937 79.3209 45.8937 78.6209C45.8937 77.5943 46.1923 76.7776 46.7897 76.1709C47.3963 75.5549 48.227 75.2469 49.2817 75.2469C50.551 75.2469 51.4517 75.6716 51.9837 76.5209C52.525 77.3609 52.7957 78.6536 52.7957 80.3989C52.7957 81.6029 52.693 82.5876 52.4877 83.3529C52.2917 84.1183 51.9463 84.6969 51.4517 85.0889C50.957 85.4809 50.271 85.6769 49.3937 85.6769C48.395 85.6769 47.625 85.4156 47.0837 84.8929C46.5423 84.3703 46.239 83.7123 46.1737 82.9189H47.6437ZM49.4217 80.5389C49.9817 80.5389 50.4203 80.3663 50.7377 80.0209C51.0643 79.6663 51.2277 79.1996 51.2277 78.6209C51.2277 77.9769 51.055 77.4776 50.7097 77.1229C50.3737 76.7589 49.9117 76.5769 49.3237 76.5769C48.7357 76.5769 48.269 76.7636 47.9237 77.1369C47.5877 77.5009 47.4197 77.9816 47.4197 78.5789C47.4197 79.1483 47.583 79.6196 47.9097 79.9929C48.2457 80.3569 48.7497 80.5389 49.4217 80.5389ZM59.9324 72.4749L56.1244 88.1409H54.5564L58.3504 72.4749H59.9324ZM71.2818 77.8509C71.8885 77.8509 72.4298 77.9769 72.9058 78.2289C73.3911 78.4809 73.7691 78.8543 74.0398 79.3489C74.3198 79.8436 74.4598 80.4409 74.4598 81.1409V85.6909H72.8778V81.3789C72.8778 80.6883 72.7051 80.1609 72.3598 79.7969C72.0145 79.4236 71.5431 79.2369 70.9458 79.2369C70.3485 79.2369 69.8725 79.4236 69.5178 79.7969C69.1725 80.1609 68.9998 80.6883 68.9998 81.3789V85.6909H67.4178V81.3789C67.4178 80.6883 67.2451 80.1609 66.8998 79.7969C66.5545 79.4236 66.0831 79.2369 65.4858 79.2369C64.8885 79.2369 64.4125 79.4236 64.0578 79.7969C63.7125 80.1609 63.5398 80.6883 63.5398 81.3789V85.6909H61.9438V77.9769H63.5398V78.8589C63.8011 78.5416 64.1325 78.2943 64.5338 78.1169C64.9351 77.9396 65.3645 77.8509 65.8218 77.8509C66.4378 77.8509 66.9885 77.9816 67.4738 78.2429C67.9591 78.5043 68.3325 78.8823 68.5938 79.3769C68.8271 78.9103 69.1911 78.5416 69.6858 78.2709C70.1805 77.9909 70.7125 77.8509 71.2818 77.8509ZM79.8367 85.8169C79.1087 85.8169 78.4507 85.6536 77.8627 85.3269C77.2747 84.9909 76.8127 84.5243 76.4767 83.9269C76.1407 83.3203 75.9727 82.6203 75.9727 81.8269C75.9727 81.0429 76.1453 80.3476 76.4907 79.7409C76.836 79.1343 77.3073 78.6676 77.9047 78.3409C78.502 78.0143 79.1693 77.8509 79.9067 77.8509C80.644 77.8509 81.3113 78.0143 81.9087 78.3409C82.506 78.6676 82.9773 79.1343 83.3227 79.7409C83.668 80.3476 83.8407 81.0429 83.8407 81.8269C83.8407 82.6109 83.6633 83.3063 83.3087 83.9129C82.954 84.5196 82.4687 84.9909 81.8527 85.3269C81.246 85.6536 80.574 85.8169 79.8367 85.8169ZM79.8367 84.4309C80.2473 84.4309 80.63 84.3329 80.9847 84.1369C81.3487 83.9409 81.6427 83.6469 81.8667 83.2549C82.0907 82.8629 82.2027 82.3869 82.2027 81.8269C82.2027 81.2669 82.0953 80.7956 81.8807 80.4129C81.666 80.0209 81.3813 79.7269 81.0267 79.5309C80.672 79.3349 80.2893 79.2369 79.8787 79.2369C79.468 79.2369 79.0853 79.3349 78.7307 79.5309C78.3853 79.7269 78.11 80.0209 77.9047 80.4129C77.6993 80.7956 77.5967 81.2669 77.5967 81.8269C77.5967 82.6576 77.8067 83.3016 78.2267 83.7589C78.656 84.2069 79.1927 84.4309 79.8367 84.4309ZM89.3104 77.8509C89.9171 77.8509 90.4584 77.9769 90.9344 78.2289C91.4197 78.4809 91.7977 78.8543 92.0684 79.3489C92.3391 79.8436 92.4744 80.4409 92.4744 81.1409V85.6909H90.8924V81.3789C90.8924 80.6883 90.7197 80.1609 90.3744 79.7969C90.0291 79.4236 89.5577 79.2369 88.9604 79.2369C88.3631 79.2369 87.8871 79.4236 87.5324 79.7969C87.1871 80.1609 87.0144 80.6883 87.0144 81.3789V85.6909H85.4184V77.9769H87.0144V78.8589C87.2757 78.5416 87.6071 78.2943 88.0084 78.1169C88.4191 77.9396 88.8531 77.8509 89.3104 77.8509ZM96.3722 79.2789V83.5489C96.3722 83.8383 96.4375 84.0483 96.5682 84.1789C96.7082 84.3003 96.9415 84.3609 97.2682 84.3609H98.2482V85.6909H96.9882C96.2695 85.6909 95.7189 85.5229 95.3362 85.1869C94.9535 84.8509 94.7622 84.3049 94.7622 83.5489V79.2789H93.8522V77.9769H94.7622V76.0589H96.3722V77.9769H98.2482V79.2789H96.3722ZM103.709 77.8509C104.297 77.8509 104.82 77.9769 105.277 78.2289C105.744 78.4809 106.108 78.8543 106.369 79.3489C106.64 79.8436 106.775 80.4409 106.775 81.1409V85.6909H105.193V81.3789C105.193 80.6883 105.021 80.1609 104.675 79.7969C104.33 79.4236 103.859 79.2369 103.261 79.2369C102.664 79.2369 102.188 79.4236 101.833 79.7969C101.488 80.1609 101.315 80.6883 101.315 81.3789V85.6909H99.7192V75.3309H101.315V78.8729C101.586 78.5463 101.927 78.2943 102.337 78.1169C102.757 77.9396 103.215 77.8509 103.709 77.8509Z" fill="white"/>
<path d="M313.456 63.3854L303.891 54.0806C303.734 53.9263 303.547 53.8038 303.341 53.7202C303.135 53.6366 302.914 53.5935 302.691 53.5935C302.468 53.5935 302.247 53.6366 302.041 53.7202C301.835 53.8038 301.649 53.9263 301.491 54.0806C301.177 54.3892 301 54.8066 301 55.2417C301 55.6768 301.177 56.0942 301.491 56.4027L309.856 64.637L301.491 72.7889C301.177 73.0975 301 73.5149 301 73.95C301 74.3851 301.177 74.8025 301.491 75.111C301.648 75.2666 301.835 75.3904 302.041 75.4752C302.246 75.56 302.468 75.6042 302.691 75.6051C302.915 75.6042 303.136 75.56 303.342 75.4752C303.548 75.3904 303.735 75.2666 303.891 75.111L313.456 65.8063C313.627 65.6521 313.764 65.4649 313.858 65.2566C313.952 65.0482 314 64.8233 314 64.5958C314 64.3684 313.952 64.1434 313.858 63.9351C313.764 63.7268 313.627 63.5396 313.456 63.3854V63.3854Z" fill="white"/>
</svg>
