<svg width="211" height="211" viewBox="0 0 211 211" fill="none" xmlns="http://www.w3.org/2000/svg">
<g clip-path="url(#clip0)">
<path d="M137.731 187.191L28.1558 157.83C26.172 157.298 24.9972 155.264 25.5288 153.28L47.9195 69.7163C48.4511 67.7325 50.4859 66.5577 52.4697 67.0893L162.045 96.4499C164.029 96.9814 165.204 99.0163 164.672 101L142.281 184.564C141.75 186.547 139.715 187.722 137.731 187.191Z" fill="#F0C67B"/>
<path d="M164.937 110.889L42.7456 78.1483C40.7618 77.6168 39.587 75.5819 40.1186 73.5981L47.6976 45.3127C48.2292 43.329 50.264 42.1541 52.2478 42.6857L174.439 75.4267C176.423 75.9583 177.598 77.9931 177.066 79.9769L169.487 108.262C168.955 110.246 166.921 111.421 164.937 110.889Z" fill="#FEDEA5"/>
<path d="M116.15 62.5796L111.692 61.3851C108.015 60.3996 105.806 56.6065 106.797 52.9065L107.167 51.5245C108.153 47.8467 111.946 45.638 115.646 46.6294L120.104 47.8239C123.782 48.8093 125.991 52.6024 124.999 56.3025L124.629 57.6844C123.637 61.3845 119.85 63.571 116.15 62.5796Z" fill="#FF3232"/>
<path d="M119.444 98.6999L88.1714 90.3206L67.2737 168.312L98.546 176.691L119.444 98.6999Z" fill="#FF3232"/>
<path d="M131.732 63.9836L94.8875 54.1111L85.3853 89.5737L122.23 99.4462L131.732 63.9836Z" fill="#FF6969"/>
<path d="M112.97 49.3048L96.5114 31.1103C88.3839 22.1239 73.5181 25.7137 70.3826 37.4157C68.985 42.6315 72.0852 48.0013 77.301 49.3988L108.439 57.7424C110.602 58.3217 112.834 57.0326 113.414 54.8706L113.897 53.0651C114.227 51.744 113.893 50.3167 112.97 49.3048ZM100.303 50.9277L83.0736 46.311C80.9784 45.7495 79.7383 43.6016 80.2997 41.5064C82.1392 34.6412 90.8448 32.5543 95.5981 37.8175L103.319 46.3605C104.171 47.2816 104.321 48.6835 103.591 49.8019C102.902 50.8594 101.529 51.2562 100.303 50.9277Z" fill="#FF3232"/>
<path d="M117.77 54.1266L117.286 55.9321C116.707 58.0941 117.996 60.3268 120.158 60.9062L151.296 69.2497C156.512 70.6472 161.882 67.547 163.28 62.3313C166.415 50.6293 155.336 40.0875 143.804 43.8062L120.437 51.3055C119.131 51.7202 118.128 52.7892 117.77 54.1266ZM128.311 56.4254C128.26 55.0979 129.091 53.9588 130.267 53.5812L141.225 50.0432C147.973 47.8617 154.463 54.0442 152.629 60.8871C152.068 62.9823 149.92 64.2224 147.825 63.661L130.595 59.0442C129.369 58.7158 128.357 57.68 128.311 56.4254Z" fill="#FF3232"/>
</g>
<defs>
<clipPath id="clip0">
<rect width="171.536" height="171.536" fill="white" transform="translate(44.3967) rotate(15)"/>
</clipPath>
</defs>
</svg>
