<svg width="339" height="122" viewBox="0 0 339 122" fill="none" xmlns="http://www.w3.org/2000/svg">
<rect width="339" height="121.542" rx="10" fill="#1E1E3F"/>
<mask id="mask0" mask-type="alpha" maskUnits="userSpaceOnUse" x="0" y="0" width="339" height="122">
<rect width="339" height="121.542" rx="10" fill="#C4C4C4"/>
</mask>
<g mask="url(#mask0)">
<path d="M52.5286 51.7457C52.5286 29.5161 74.7358 8.42371 88.8288 0H0V121.542H80.7146C84.1311 101.686 76.4438 86.6439 68.3298 79.4236C60.2159 72.2033 52.5286 69.7268 52.5286 51.7457Z" fill="#444359"/>
<path d="M180.876 41.8597C166.512 21.2735 173.211 2.81679 178.356 -3.83826H339V55.6135C302.146 111.516 277.577 70.6983 275.372 60.4939C273.167 50.2895 270.963 15.6832 236.314 45.4091C201.665 75.135 198.83 67.5926 180.876 41.8597Z" fill="#9B9DB4" fill-opacity="0.49"/>
<path d="M222.979 125.38C222.979 147.991 209.992 166.321 193.973 166.321C177.954 166.321 164.968 147.991 164.968 125.38C161.995 86.2105 170.821 88.8501 181.618 96.3799C188.915 101.469 197.868 99.7701 205.737 95.619C220.836 87.6537 222.979 106.799 222.979 125.38Z" fill="#6C71A1"/>
</g>
<rect width="339" height="121.542" rx="10" fill="#FF0000" style="mix-blend-mode:soft-light"/>
<path d="M313.456 63.3853L303.891 54.0805C303.734 53.9262 303.547 53.8036 303.341 53.72C303.135 53.6364 302.914 53.5934 302.691 53.5934C302.468 53.5934 302.247 53.6364 302.041 53.72C301.835 53.8036 301.649 53.9262 301.491 54.0805C301.177 54.3891 301 54.8065 301 55.2416C301 55.6766 301.177 56.094 301.491 56.4026L309.856 64.6369L301.491 72.7888C301.177 73.0974 301 73.5148 301 73.9499C301 74.3849 301.177 74.8023 301.491 75.1109C301.648 75.2665 301.835 75.3903 302.041 75.4751C302.246 75.5599 302.468 75.604 302.691 75.605C302.915 75.604 303.136 75.5599 303.342 75.4751C303.548 75.3903 303.735 75.2665 303.891 75.1109L313.456 65.8062C313.627 65.6519 313.764 65.4648 313.858 65.2564C313.952 65.0481 314 64.8231 314 64.5957C314 64.3683 313.952 64.1433 313.858 63.935C313.764 63.7267 313.627 63.5395 313.456 63.3853V63.3853Z" fill="white"/>
</svg>
