<svg width="339" height="122" viewBox="0 0 339 122" fill="none" xmlns="http://www.w3.org/2000/svg">
<rect width="339" height="121.542" rx="10" fill="#1E1E3F"/>
<mask id="mask0" mask-type="alpha" maskUnits="userSpaceOnUse" x="0" y="0" width="339" height="122">
<rect width="339" height="121.542" rx="10" fill="#C4C4C4"/>
</mask>
<g mask="url(#mask0)">
<path d="M52.5286 51.7457C52.5286 29.5161 74.7358 8.42371 88.8288 0H0V121.542H80.7146C84.1311 101.686 76.4438 86.6439 68.3298 79.4236C60.2159 72.2033 52.5286 69.7268 52.5286 51.7457Z" fill="#444359"/>
<path d="M180.876 41.8597C166.512 21.2735 173.211 2.81679 178.356 -3.83826H339V55.6135C302.146 111.516 277.577 70.6983 275.372 60.4939C273.167 50.2895 270.963 15.6832 236.314 45.4091C201.665 75.135 198.83 67.5926 180.876 41.8597Z" fill="#9B9DB4" fill-opacity="0.49"/>
<path d="M222.979 125.38C222.979 147.991 209.993 166.321 193.973 166.321C177.954 166.321 164.968 147.991 164.968 125.38C161.995 86.2106 170.822 88.8502 181.618 96.38C188.915 101.469 197.868 99.7702 205.737 95.6191C220.836 87.6539 222.979 106.799 222.979 125.38Z" fill="#6C71A1"/>
</g>
<rect width="339" height="121.542" rx="10" fill="#51465A" style="mix-blend-mode:overlay"/>
<path d="M313.456 60.5142L303.891 51.2094C303.734 51.0551 303.547 50.9326 303.341 50.8489C303.135 50.7653 302.914 50.7223 302.691 50.7223C302.468 50.7223 302.247 50.7653 302.041 50.8489C301.835 50.9326 301.649 51.0551 301.491 51.2094C301.177 51.518 301 51.9354 301 52.3705C301 52.8055 301.177 53.2229 301.491 53.5315L309.856 61.7658L301.491 69.9177C301.177 70.2263 301 70.6437 301 71.0788C301 71.5138 301.177 71.9312 301.491 72.2398C301.648 72.3954 301.835 72.5192 302.041 72.604C302.246 72.6888 302.468 72.733 302.691 72.7339C302.915 72.733 303.136 72.6888 303.342 72.604C303.548 72.5192 303.735 72.3954 303.891 72.2398L313.456 62.9351C313.627 62.7808 313.764 62.5937 313.858 62.3853C313.952 62.177 314 61.952 314 61.7246C314 61.4972 313.952 61.2722 313.858 61.0639C313.764 60.8556 313.627 60.6684 313.456 60.5142V60.5142Z" fill="white"/>
</svg>
