<svg width="339" height="122" viewBox="0 0 339 122" fill="none" xmlns="http://www.w3.org/2000/svg">
<rect width="339" height="121.542" rx="10" fill="#1E1E3F"/>
<mask id="mask0" mask-type="alpha" maskUnits="userSpaceOnUse" x="0" y="0" width="339" height="122">
<rect width="339" height="121.542" rx="10" fill="#C4C4C4"/>
</mask>
<g mask="url(#mask0)">
<path d="M52.5286 51.7457C52.5286 29.5161 74.7358 8.42371 88.8288 0H0V121.542H80.7146C84.1311 101.686 76.4438 86.6439 68.3298 79.4236C60.2159 72.2033 52.5286 69.7268 52.5286 51.7457Z" fill="#444359"/>
<path d="M180.876 41.8597C166.512 21.2735 173.211 2.81679 178.356 -3.83826H339V55.6135C302.146 111.516 277.577 70.6983 275.372 60.4939C273.167 50.2895 270.963 15.6832 236.314 45.4091C201.665 75.135 198.83 67.5926 180.876 41.8597Z" fill="#9B9DB4" fill-opacity="0.49"/>
<path d="M222.979 125.38C222.979 147.991 209.993 166.321 193.973 166.321C177.954 166.321 164.968 147.991 164.968 125.38C161.995 86.2106 170.822 88.8502 181.618 96.38C188.915 101.469 197.868 99.7702 205.737 95.6191C220.836 87.6539 222.979 106.799 222.979 125.38Z" fill="#6C71A1"/>
</g>
<rect width="339" height="121.542" rx="10" fill="#51465A" style="mix-blend-mode:overlay"/>
<path d="M30.2981 37.2388H38.9401C41.7241 37.2388 43.8991 37.8382 45.4651 39.0368C47.0311 40.2355 47.8141 42.0045 47.8141 44.3438C47.8141 46.6832 47.0311 48.4135 45.4651 49.5348C43.9185 50.6562 41.7435 51.2168 38.9401 51.2168H37.0551V56.7558C37.0551 56.9685 36.9778 57.1522 36.8231 57.3068C36.6685 57.4615 36.4848 57.5388 36.2721 57.5388H30.2981C30.0855 57.5388 29.9018 57.4615 29.7471 57.3068C29.5925 57.1522 29.5151 56.9685 29.5151 56.7558V38.0218C29.5151 37.8092 29.5925 37.6255 29.7471 37.4708C29.9018 37.3162 30.0855 37.2388 30.2981 37.2388ZM36.9101 42.6328V45.8518H38.9401C39.2881 45.8518 39.5975 45.7262 39.8681 45.4748C40.1388 45.2042 40.2741 44.8272 40.2741 44.3438C40.2741 43.8605 40.1678 43.4545 39.9551 43.1258C39.7425 42.7972 39.4041 42.6328 38.9401 42.6328H36.9101ZM69.2331 56.5818C69.2911 56.6978 69.3201 56.8235 69.3201 56.9588C69.3201 57.0942 69.2525 57.2295 69.1171 57.3648C69.0011 57.4808 68.8561 57.5388 68.6821 57.5388H62.7371C62.1378 57.5388 61.7221 57.2778 61.4901 56.7558L58.9961 51.2168H57.8071V56.7558C57.8071 56.9685 57.7298 57.1522 57.5751 57.3068C57.4205 57.4615 57.2368 57.5388 57.0241 57.5388H51.3401C51.1275 57.5388 50.9438 57.4615 50.7891 57.3068C50.6345 57.1522 50.5571 56.9685 50.5571 56.7558V38.0218C50.5571 37.8092 50.6345 37.6255 50.7891 37.4708C50.9438 37.3162 51.1275 37.2388 51.3401 37.2388H59.9241C62.7081 37.2388 64.8831 37.8672 66.4491 39.1238C68.0151 40.3612 68.7981 42.1495 68.7981 44.4888C68.7981 46.8088 67.7541 48.6358 65.6661 49.9698L69.2331 56.5818ZM57.8071 42.6328V45.7068H59.9241C60.3495 45.7068 60.6781 45.5715 60.9101 45.3008C61.1421 45.0108 61.2581 44.6532 61.2581 44.2278C61.2581 43.8025 61.1421 43.4352 60.9101 43.1258C60.6975 42.7972 60.3688 42.6328 59.9241 42.6328H57.8071ZM74.1396 39.0948C75.9182 37.6642 78.2672 36.9488 81.1866 36.9488C84.1059 36.9488 86.4452 37.6738 88.2046 39.1238C89.9832 40.5545 90.8726 42.5748 90.8726 45.1848V49.7088C90.8726 52.3575 89.9929 54.3778 88.2336 55.7698C86.4936 57.1425 84.1446 57.8288 81.1866 57.8288C78.2286 57.8288 75.8699 57.1425 74.1106 55.7698C72.3706 54.3778 71.5006 52.3575 71.5006 49.7088V45.1848C71.5006 42.5555 72.3802 40.5255 74.1396 39.0948ZM79.6206 51.5938C80.0072 51.9805 80.5292 52.1738 81.1866 52.1738C81.8439 52.1738 82.3659 51.9805 82.7526 51.5938C83.1392 51.2072 83.3326 50.6175 83.3326 49.8248V44.9528C83.3326 44.1795 83.1392 43.5995 82.7526 43.2128C82.3659 42.8068 81.8439 42.6038 81.1866 42.6038C80.5292 42.6038 80.0072 42.8068 79.6206 43.2128C79.2339 43.5995 79.0406 44.1795 79.0406 44.9528V49.8248C79.0406 50.6175 79.2339 51.2072 79.6206 51.5938Z" fill="#FF3E3E"/>
<path d="M103.251 37.2388H111.893C114.677 37.2388 116.852 37.8382 118.418 39.0368C119.984 40.2355 120.767 42.0045 120.767 44.3438C120.767 46.6832 119.984 48.4135 118.418 49.5348C116.872 50.6562 114.697 51.2168 111.893 51.2168H110.008V56.7558C110.008 56.9685 109.931 57.1522 109.776 57.3068C109.622 57.4615 109.438 57.5388 109.225 57.5388H103.251C103.039 57.5388 102.855 57.4615 102.7 57.3068C102.546 57.1522 102.468 56.9685 102.468 56.7558V38.0218C102.468 37.8092 102.546 37.6255 102.7 37.4708C102.855 37.3162 103.039 37.2388 103.251 37.2388ZM109.863 42.6328V45.8518H111.893C112.241 45.8518 112.551 45.7262 112.821 45.4748C113.092 45.2042 113.227 44.8272 113.227 44.3438C113.227 43.8605 113.121 43.4545 112.908 43.1258C112.696 42.7972 112.357 42.6328 111.893 42.6328H109.863ZM129.049 57.5388H123.858C123.646 57.5388 123.462 57.4615 123.307 57.3068C123.153 57.1522 123.075 56.9685 123.075 56.7558V37.7318C123.075 37.5192 123.153 37.3355 123.307 37.1808C123.462 37.0262 123.646 36.9488 123.858 36.9488H129.049C129.262 36.9488 129.446 37.0262 129.6 37.1808C129.755 37.3355 129.832 37.5192 129.832 37.7318V56.7558C129.832 56.9685 129.755 57.1522 129.6 57.3068C129.446 57.4615 129.262 57.5388 129.049 57.5388ZM132.297 53.2178C132.297 50.6078 134.414 48.9355 138.648 48.2008L141.722 47.7078C141.722 47.1278 141.674 46.7412 141.577 46.5478C141.481 46.3352 141.249 46.2288 140.881 46.2288C140.533 46.2288 140.185 46.3835 139.837 46.6928C139.489 47.0022 139.161 47.1568 138.851 47.1568H133.921C133.496 47.1568 133.283 46.9538 133.283 46.5478C133.283 46.1225 133.428 45.6778 133.718 45.2138C134.028 44.7305 134.463 44.2568 135.023 43.7928C135.603 43.3288 136.406 42.9422 137.43 42.6328C138.474 42.3235 139.634 42.1688 140.91 42.1688C143.501 42.1688 145.444 42.7102 146.739 43.7928C148.035 44.8755 148.682 46.4222 148.682 48.4328V56.7558C148.682 56.9685 148.605 57.1522 148.45 57.3068C148.296 57.4615 148.112 57.5388 147.899 57.5388H142.824C142.612 57.5388 142.428 57.4615 142.273 57.3068C142.119 57.1522 142.041 56.9685 142.041 56.7558V55.9438C141.133 57.2005 139.808 57.8288 138.068 57.8288C136.328 57.8288 134.927 57.3938 133.863 56.5238C132.819 55.6345 132.297 54.5325 132.297 53.2178ZM139.924 53.5368C141.181 53.5368 141.809 52.7828 141.809 51.2748L140.098 51.6518C139.248 51.8452 138.822 52.2028 138.822 52.7248C138.822 52.9568 138.919 53.1502 139.112 53.3048C139.306 53.4595 139.576 53.5368 139.924 53.5368ZM168.505 48.7518V56.7558C168.505 56.9685 168.428 57.1522 168.273 57.3068C168.118 57.4615 167.935 57.5388 167.722 57.5388H162.183C161.97 57.5388 161.787 57.4615 161.632 57.3068C161.477 57.1522 161.4 56.9685 161.4 56.7558V48.9548C161.4 47.8915 160.917 47.3598 159.95 47.3598C158.983 47.3598 158.5 47.8915 158.5 48.9548V56.7558C158.5 56.9685 158.423 57.1522 158.268 57.3068C158.113 57.4615 157.93 57.5388 157.717 57.5388H152.207C151.994 57.5388 151.811 57.4615 151.656 57.3068C151.501 57.1522 151.424 56.9685 151.424 56.7558V43.2418C151.424 43.0292 151.501 42.8455 151.656 42.6908C151.811 42.5362 151.994 42.4588 152.207 42.4588H157.282C157.495 42.4588 157.678 42.5362 157.833 42.6908C157.988 42.8455 158.065 43.0292 158.065 43.2418V44.1988C158.568 43.5995 159.244 43.1162 160.095 42.7488C160.965 42.3622 161.893 42.1688 162.879 42.1688C164.464 42.1688 165.798 42.7295 166.881 43.8508C167.964 44.9528 168.505 46.5865 168.505 48.7518Z" fill="white"/>
<path d="M35.2461 82.9189C35.2461 83.3856 35.1295 83.8243 34.8961 84.2349C34.6721 84.6456 34.3361 84.9909 33.8881 85.2709C33.4495 85.5509 32.9268 85.7189 32.3201 85.7749V86.9089H31.4101V85.7749C30.5328 85.6909 29.8235 85.4156 29.2821 84.9489C28.7408 84.4823 28.4701 83.8663 28.4701 83.1009H30.1781C30.2061 83.4649 30.3228 83.7683 30.5281 84.0109C30.7335 84.2443 31.0275 84.3936 31.4101 84.4589V81.3789C30.7848 81.2203 30.2761 81.0616 29.8841 80.9029C29.4921 80.7349 29.1561 80.4736 28.8761 80.1189C28.6055 79.7643 28.4701 79.2789 28.4701 78.6629C28.4701 77.8883 28.7408 77.2489 29.2821 76.7449C29.8235 76.2316 30.5328 75.9329 31.4101 75.8489V74.7149H32.3201V75.8489C33.1415 75.9236 33.7995 76.1849 34.2941 76.6329C34.7981 77.0716 35.0828 77.6783 35.1481 78.4529H33.4401C33.4121 78.1636 33.3001 77.9069 33.1041 77.6829C32.9081 77.4496 32.6468 77.2909 32.3201 77.2069V80.2309C32.9455 80.3803 33.4541 80.5389 33.8461 80.7069C34.2381 80.8656 34.5695 81.1223 34.8401 81.4769C35.1108 81.8223 35.2461 82.3029 35.2461 82.9189ZM30.0941 78.5789C30.0941 78.9616 30.2061 79.2603 30.4301 79.4749C30.6635 79.6896 30.9901 79.8623 31.4101 79.9929V77.1649C31.0088 77.2116 30.6868 77.3563 30.4441 77.5989C30.2108 77.8416 30.0941 78.1683 30.0941 78.5789ZM32.3201 84.4589C32.7308 84.3936 33.0528 84.2303 33.2861 83.9689C33.5195 83.6983 33.6361 83.3763 33.6361 83.0029C33.6361 82.6296 33.5195 82.3403 33.2861 82.1349C33.0621 81.9203 32.7401 81.7476 32.3201 81.6169V84.4589ZM37.3656 76.9409V75.4849H40.2776V85.6909H38.6676V76.9409H37.3656ZM43.3241 85.7889C43.0348 85.7889 42.7921 85.6909 42.5961 85.4949C42.4001 85.2989 42.3021 85.0563 42.3021 84.7669C42.3021 84.4776 42.4001 84.2349 42.5961 84.0389C42.7921 83.8429 43.0348 83.7449 43.3241 83.7449C43.6041 83.7449 43.8421 83.8429 44.0381 84.0389C44.2341 84.2349 44.3321 84.4776 44.3321 84.7669C44.3321 85.0563 44.2341 85.2989 44.0381 85.4949C43.8421 85.6909 43.6041 85.7889 43.3241 85.7889ZM52.4271 76.8569H47.7371V79.6429C47.9331 79.3816 48.2224 79.1623 48.6051 78.9849C48.9971 78.8076 49.4124 78.7189 49.8511 78.7189C50.6351 78.7189 51.2697 78.8869 51.7551 79.2229C52.2497 79.5589 52.5997 79.9836 52.8051 80.4969C53.0197 81.0103 53.1271 81.5516 53.1271 82.1209C53.1271 82.8116 52.9917 83.4276 52.7211 83.9689C52.4597 84.5009 52.0631 84.9209 51.5311 85.2289C51.0084 85.5369 50.3644 85.6909 49.5991 85.6909C48.5817 85.6909 47.7651 85.4389 47.1491 84.9349C46.5331 84.4309 46.1644 83.7636 46.0431 82.9329H47.5971C47.6997 83.3716 47.9284 83.7216 48.2831 83.9829C48.6377 84.2349 49.0811 84.3609 49.6131 84.3609C50.2757 84.3609 50.7704 84.1603 51.0971 83.7589C51.4331 83.3576 51.6011 82.8256 51.6011 82.1629C51.6011 81.4909 51.4331 80.9776 51.0971 80.6229C50.7611 80.2589 50.2664 80.0769 49.6131 80.0769C49.1557 80.0769 48.7684 80.1936 48.4511 80.4269C48.1431 80.6509 47.9191 80.9589 47.7791 81.3509H46.2671V75.4569H52.4271V76.8569ZM54.7885 80.4549C54.7885 78.8403 55.0592 77.5803 55.6005 76.6749C56.1512 75.7603 57.0938 75.3029 58.4285 75.3029C59.7632 75.3029 60.7012 75.7603 61.2425 76.6749C61.7932 77.5803 62.0685 78.8403 62.0685 80.4549C62.0685 82.0883 61.7932 83.3669 61.2425 84.2909C60.7012 85.2056 59.7632 85.6629 58.4285 85.6629C57.0938 85.6629 56.1512 85.2056 55.6005 84.2909C55.0592 83.3669 54.7885 82.0883 54.7885 80.4549ZM60.5005 80.4549C60.5005 79.6989 60.4492 79.0596 60.3465 78.5369C60.2532 78.0143 60.0572 77.5896 59.7585 77.2629C59.4598 76.9269 59.0165 76.7589 58.4285 76.7589C57.8405 76.7589 57.3972 76.9269 57.0985 77.2629C56.7998 77.5896 56.5992 78.0143 56.4965 78.5369C56.4032 79.0596 56.3565 79.6989 56.3565 80.4549C56.3565 81.2389 56.4032 81.8969 56.4965 82.4289C56.5898 82.9609 56.7858 83.3903 57.0845 83.7169C57.3925 84.0436 57.8405 84.2069 58.4285 84.2069C59.0165 84.2069 59.4598 84.0436 59.7585 83.7169C60.0665 83.3903 60.2672 82.9609 60.3605 82.4289C60.4538 81.8969 60.5005 81.2389 60.5005 80.4549ZM69.1472 72.4749L65.3392 88.1409H63.7712L67.5652 72.4749H69.1472ZM75.1486 77.8509C75.7366 77.8509 76.2593 77.9769 76.7166 78.2289C77.1833 78.4809 77.5473 78.8543 77.8086 79.3489C78.0793 79.8436 78.2146 80.4409 78.2146 81.1409V85.6909H76.6326V81.3789C76.6326 80.6883 76.46 80.1609 76.1146 79.7969C75.7693 79.4236 75.298 79.2369 74.7006 79.2369C74.1033 79.2369 73.6273 79.4236 73.2726 79.7969C72.9273 80.1609 72.7546 80.6883 72.7546 81.3789V85.6909H71.1586V75.3309H72.7546V78.8729C73.0253 78.5463 73.366 78.2943 73.7766 78.1169C74.1966 77.9396 74.654 77.8509 75.1486 77.8509ZM83.5964 85.8169C82.8684 85.8169 82.2104 85.6536 81.6224 85.3269C81.0344 84.9909 80.5724 84.5243 80.2364 83.9269C79.9004 83.3203 79.7324 82.6203 79.7324 81.8269C79.7324 81.0429 79.9051 80.3476 80.2504 79.7409C80.5958 79.1343 81.0671 78.6676 81.6644 78.3409C82.2618 78.0143 82.9291 77.8509 83.6664 77.8509C84.4038 77.8509 85.0711 78.0143 85.6684 78.3409C86.2658 78.6676 86.7371 79.1343 87.0824 79.7409C87.4278 80.3476 87.6004 81.0429 87.6004 81.8269C87.6004 82.6109 87.4231 83.3063 87.0684 83.9129C86.7138 84.5196 86.2284 84.9909 85.6124 85.3269C85.0058 85.6536 84.3338 85.8169 83.5964 85.8169ZM83.5964 84.4309C84.0071 84.4309 84.3898 84.3329 84.7444 84.1369C85.1084 83.9409 85.4024 83.6469 85.6264 83.2549C85.8504 82.8629 85.9624 82.3869 85.9624 81.8269C85.9624 81.2669 85.8551 80.7956 85.6404 80.4129C85.4258 80.0209 85.1411 79.7269 84.7864 79.5309C84.4318 79.3349 84.0491 79.2369 83.6384 79.2369C83.2278 79.2369 82.8451 79.3349 82.4904 79.5309C82.1451 79.7269 81.8698 80.0209 81.6644 80.4129C81.4591 80.7956 81.3564 81.2669 81.3564 81.8269C81.3564 82.6576 81.5664 83.3016 81.9864 83.7589C82.4158 84.2069 82.9524 84.4309 83.5964 84.4309ZM96.1642 77.9769V85.6909H94.5682V84.7809C94.3162 85.0983 93.9848 85.3503 93.5742 85.5369C93.1728 85.7143 92.7435 85.8029 92.2862 85.8029C91.6795 85.8029 91.1335 85.6769 90.6482 85.4249C90.1722 85.1729 89.7942 84.7996 89.5142 84.3049C89.2435 83.8103 89.1082 83.2129 89.1082 82.5129V77.9769H90.6902V82.2749C90.6902 82.9656 90.8628 83.4976 91.2082 83.8709C91.5535 84.2349 92.0248 84.4169 92.6222 84.4169C93.2195 84.4169 93.6908 84.2349 94.0362 83.8709C94.3908 83.4976 94.5682 82.9656 94.5682 82.2749V77.9769H96.1642ZM99.866 79.0969C100.099 78.7049 100.407 78.4016 100.79 78.1869C101.182 77.9629 101.644 77.8509 102.176 77.8509V79.5029H101.77C101.145 79.5029 100.669 79.6616 100.342 79.9789C100.025 80.2963 99.866 80.8469 99.866 81.6309V85.6909H98.27V77.9769H99.866V79.0969ZM105.393 83.7729L103.699 87.6369H102.663L103.657 83.7729H105.393ZM116.99 82.9189C116.99 83.3856 116.874 83.8243 116.64 84.2349C116.416 84.6456 116.08 84.9909 115.632 85.2709C115.194 85.5509 114.671 85.7189 114.064 85.7749V86.9089H113.154V85.7749C112.277 85.6909 111.568 85.4156 111.026 84.9489C110.485 84.4823 110.214 83.8663 110.214 83.1009H111.922C111.95 83.4649 112.067 83.7683 112.272 84.0109C112.478 84.2443 112.772 84.3936 113.154 84.4589V81.3789C112.529 81.2203 112.02 81.0616 111.628 80.9029C111.236 80.7349 110.9 80.4736 110.62 80.1189C110.35 79.7643 110.214 79.2789 110.214 78.6629C110.214 77.8883 110.485 77.2489 111.026 76.7449C111.568 76.2316 112.277 75.9329 113.154 75.8489V74.7149H114.064V75.8489C114.886 75.9236 115.544 76.1849 116.038 76.6329C116.542 77.0716 116.827 77.6783 116.892 78.4529H115.184C115.156 78.1636 115.044 77.9069 114.848 77.6829C114.652 77.4496 114.391 77.2909 114.064 77.2069V80.2309C114.69 80.3803 115.198 80.5389 115.59 80.7069C115.982 80.8656 116.314 81.1223 116.584 81.4769C116.855 81.8223 116.99 82.3029 116.99 82.9189ZM111.838 78.5789C111.838 78.9616 111.95 79.2603 112.174 79.4749C112.408 79.6896 112.734 79.8623 113.154 79.9929V77.1649C112.753 77.2116 112.431 77.3563 112.188 77.5989C111.955 77.8416 111.838 78.1683 111.838 78.5789ZM114.064 84.4589C114.475 84.3936 114.797 84.2303 115.03 83.9689C115.264 83.6983 115.38 83.3763 115.38 83.0029C115.38 82.6296 115.264 82.3403 115.03 82.1349C114.806 81.9203 114.484 81.7476 114.064 81.6169V84.4589ZM124.808 77.8509C124.705 77.4216 124.518 77.0996 124.248 76.8849C123.977 76.6703 123.599 76.5629 123.114 76.5629C122.376 76.5629 121.826 76.8476 121.462 77.4169C121.098 77.9769 120.906 78.9103 120.888 80.2169C121.13 79.8063 121.485 79.4889 121.952 79.2649C122.418 79.0409 122.922 78.9289 123.464 78.9289C124.08 78.9289 124.621 79.0643 125.088 79.3349C125.564 79.5963 125.932 79.9789 126.194 80.4829C126.464 80.9869 126.6 81.5889 126.6 82.2889C126.6 82.9423 126.469 83.5256 126.208 84.0389C125.956 84.5523 125.578 84.9583 125.074 85.2569C124.57 85.5463 123.963 85.6909 123.254 85.6909C122.292 85.6909 121.536 85.4809 120.986 85.0609C120.444 84.6316 120.062 84.0296 119.838 83.2549C119.623 82.4803 119.516 81.5143 119.516 80.3569C119.516 76.9409 120.72 75.2329 123.128 75.2329C124.061 75.2329 124.794 75.4849 125.326 75.9889C125.867 76.4929 126.184 77.1136 126.278 77.8509H124.808ZM123.114 80.2729C122.544 80.2729 122.059 80.4456 121.658 80.7909C121.266 81.1269 121.07 81.6169 121.07 82.2609C121.07 82.9049 121.252 83.4183 121.616 83.8009C121.989 84.1743 122.507 84.3609 123.17 84.3609C123.758 84.3609 124.22 84.1789 124.556 83.8149C124.901 83.4509 125.074 82.9656 125.074 82.3589C125.074 81.7243 124.906 81.2203 124.57 80.8469C124.243 80.4643 123.758 80.2729 123.114 80.2729ZM130.29 82.9189C130.383 83.3856 130.584 83.7403 130.892 83.9829C131.2 84.2256 131.615 84.3469 132.138 84.3469C132.801 84.3469 133.286 84.0856 133.594 83.5629C133.902 83.0403 134.056 82.1489 134.056 80.8889C133.832 81.2063 133.515 81.4536 133.104 81.6309C132.703 81.7989 132.264 81.8829 131.788 81.8829C131.181 81.8829 130.631 81.7616 130.136 81.5189C129.641 81.2669 129.249 80.8983 128.96 80.4129C128.68 79.9183 128.54 79.3209 128.54 78.6209C128.54 77.5943 128.839 76.7776 129.436 76.1709C130.043 75.5549 130.873 75.2469 131.928 75.2469C133.197 75.2469 134.098 75.6716 134.63 76.5209C135.171 77.3609 135.442 78.6536 135.442 80.3989C135.442 81.6029 135.339 82.5876 135.134 83.3529C134.938 84.1183 134.593 84.6969 134.098 85.0889C133.603 85.4809 132.917 85.6769 132.04 85.6769C131.041 85.6769 130.271 85.4156 129.73 84.8929C129.189 84.3703 128.885 83.7123 128.82 82.9189H130.29ZM132.068 80.5389C132.628 80.5389 133.067 80.3663 133.384 80.0209C133.711 79.6663 133.874 79.1996 133.874 78.6209C133.874 77.9769 133.701 77.4776 133.356 77.1229C133.02 76.7589 132.558 76.5769 131.97 76.5769C131.382 76.5769 130.915 76.7636 130.57 77.1369C130.234 77.5009 130.066 77.9816 130.066 78.5789C130.066 79.1483 130.229 79.6196 130.556 79.9929C130.892 80.3569 131.396 80.5389 132.068 80.5389ZM142.579 72.4749L138.771 88.1409H137.203L140.997 72.4749H142.579ZM153.928 77.8509C154.535 77.8509 155.076 77.9769 155.552 78.2289C156.038 78.4809 156.416 78.8543 156.686 79.3489C156.966 79.8436 157.106 80.4409 157.106 81.1409V85.6909H155.524V81.3789C155.524 80.6883 155.352 80.1609 155.006 79.7969C154.661 79.4236 154.19 79.2369 153.592 79.2369C152.995 79.2369 152.519 79.4236 152.164 79.7969C151.819 80.1609 151.646 80.6883 151.646 81.3789V85.6909H150.064V81.3789C150.064 80.6883 149.892 80.1609 149.546 79.7969C149.201 79.4236 148.73 79.2369 148.132 79.2369C147.535 79.2369 147.059 79.4236 146.704 79.7969C146.359 80.1609 146.186 80.6883 146.186 81.3789V85.6909H144.59V77.9769H146.186V78.8589C146.448 78.5416 146.779 78.2943 147.18 78.1169C147.582 77.9396 148.011 77.8509 148.468 77.8509C149.084 77.8509 149.635 77.9816 150.12 78.2429C150.606 78.5043 150.979 78.8823 151.24 79.3769C151.474 78.9103 151.838 78.5416 152.332 78.2709C152.827 77.9909 153.359 77.8509 153.928 77.8509ZM162.483 85.8169C161.755 85.8169 161.097 85.6536 160.509 85.3269C159.921 84.9909 159.459 84.5243 159.123 83.9269C158.787 83.3203 158.619 82.6203 158.619 81.8269C158.619 81.0429 158.792 80.3476 159.137 79.7409C159.482 79.1343 159.954 78.6676 160.551 78.3409C161.148 78.0143 161.816 77.8509 162.553 77.8509C163.29 77.8509 163.958 78.0143 164.555 78.3409C165.152 78.6676 165.624 79.1343 165.969 79.7409C166.314 80.3476 166.487 81.0429 166.487 81.8269C166.487 82.6109 166.31 83.3063 165.955 83.9129C165.6 84.5196 165.115 84.9909 164.499 85.3269C163.892 85.6536 163.22 85.8169 162.483 85.8169ZM162.483 84.4309C162.894 84.4309 163.276 84.3329 163.631 84.1369C163.995 83.9409 164.289 83.6469 164.513 83.2549C164.737 82.8629 164.849 82.3869 164.849 81.8269C164.849 81.2669 164.742 80.7956 164.527 80.4129C164.312 80.0209 164.028 79.7269 163.673 79.5309C163.318 79.3349 162.936 79.2369 162.525 79.2369C162.114 79.2369 161.732 79.3349 161.377 79.5309C161.032 79.7269 160.756 80.0209 160.551 80.4129C160.346 80.7956 160.243 81.2669 160.243 81.8269C160.243 82.6576 160.453 83.3016 160.873 83.7589C161.302 84.2069 161.839 84.4309 162.483 84.4309ZM171.957 77.8509C172.564 77.8509 173.105 77.9769 173.581 78.2289C174.066 78.4809 174.444 78.8543 174.715 79.3489C174.986 79.8436 175.121 80.4409 175.121 81.1409V85.6909H173.539V81.3789C173.539 80.6883 173.366 80.1609 173.021 79.7969C172.676 79.4236 172.204 79.2369 171.607 79.2369C171.01 79.2369 170.534 79.4236 170.179 79.7969C169.834 80.1609 169.661 80.6883 169.661 81.3789V85.6909H168.065V77.9769H169.661V78.8589C169.922 78.5416 170.254 78.2943 170.655 78.1169C171.066 77.9396 171.5 77.8509 171.957 77.8509ZM179.019 79.2789V83.5489C179.019 83.8383 179.084 84.0483 179.215 84.1789C179.355 84.3003 179.588 84.3609 179.915 84.3609H180.895V85.6909H179.635C178.916 85.6909 178.365 85.5229 177.983 85.1869C177.6 84.8509 177.409 84.3049 177.409 83.5489V79.2789H176.499V77.9769H177.409V76.0589H179.019V77.9769H180.895V79.2789H179.019ZM186.356 77.8509C186.944 77.8509 187.466 77.9769 187.924 78.2289C188.39 78.4809 188.754 78.8543 189.016 79.3489C189.286 79.8436 189.422 80.4409 189.422 81.1409V85.6909H187.84V81.3789C187.84 80.6883 187.667 80.1609 187.322 79.7969C186.976 79.4236 186.505 79.2369 185.908 79.2369C185.31 79.2369 184.834 79.4236 184.48 79.7969C184.134 80.1609 183.962 80.6883 183.962 81.3789V85.6909H182.366V75.3309H183.962V78.8729C184.232 78.5463 184.573 78.2943 184.984 78.1169C185.404 77.9396 185.861 77.8509 186.356 77.8509Z" fill="white"/>
<path d="M313.456 60.5142L303.891 51.2094C303.734 51.0551 303.547 50.9326 303.341 50.8489C303.135 50.7653 302.914 50.7223 302.691 50.7223C302.468 50.7223 302.247 50.7653 302.041 50.8489C301.835 50.9326 301.649 51.0551 301.491 51.2094C301.177 51.518 301 51.9354 301 52.3705C301 52.8055 301.177 53.2229 301.491 53.5315L309.856 61.7658L301.491 69.9177C301.177 70.2263 301 70.6437 301 71.0788C301 71.5138 301.177 71.9312 301.491 72.2398C301.648 72.3954 301.835 72.5192 302.041 72.604C302.246 72.6888 302.468 72.733 302.691 72.7339C302.915 72.733 303.136 72.6888 303.342 72.604C303.548 72.5192 303.735 72.3954 303.891 72.2398L313.456 62.9351C313.627 62.7808 313.764 62.5937 313.858 62.3853C313.952 62.177 314 61.952 314 61.7246C314 61.4972 313.952 61.2722 313.858 61.0639C313.764 60.8556 313.627 60.6684 313.456 60.5142V60.5142Z" fill="white"/>
</svg>
