<svg width="105" height="112" viewBox="0 0 105 112" fill="none" xmlns="http://www.w3.org/2000/svg">
<path d="M102.595 3.24112C101.9 2.21412 101.074 1.39896 100.163 0.842681C99.253 0.286399 98.2765 0 97.2902 0C96.3039 0 95.3273 0.286399 94.4169 0.842681C93.5064 1.39896 92.6801 2.21412 91.9856 3.24112L36.3247 84.9818L12.9396 50.5762C12.2185 49.5546 11.3672 48.7512 10.4344 48.2121C9.50157 47.673 8.50547 47.4086 7.50297 47.434C6.50047 47.4594 5.51121 47.7742 4.59166 48.3604C3.67211 48.9465 2.84028 49.7925 2.14367 50.8501C1.44706 51.9077 0.899314 53.1562 0.531699 54.5243C0.164083 55.8923 -0.0162018 57.3532 0.00114249 58.8234C0.0184868 60.2937 0.23312 61.7445 0.632783 63.0931C1.03245 64.4417 1.60932 65.6616 2.33045 66.6833L31.0201 108.759C31.7146 109.786 32.541 110.601 33.4514 111.157C34.3619 111.714 35.3384 112 36.3247 112C37.311 112 38.2875 111.714 39.198 111.157C40.1084 110.601 40.9347 109.786 41.6293 108.759L102.595 19.3482C103.353 18.3221 103.958 17.0768 104.372 15.6908C104.786 14.3047 105 12.8079 105 11.2947C105 9.78145 104.786 8.28464 104.372 6.89856C103.958 5.51248 103.353 4.26718 102.595 3.24112V3.24112Z" fill="#404EFB"/>
</svg>
